<svg xmlns="http://www.w3.org/2000/svg" data-name="Layer 1" width="717.67003" height="453.96431"
     viewBox="0 0 717.67003 453.96431" xmlns:xlink="http://www.w3.org/1999/xlink">
    <polygon points="230.469 157.098 218.295 212.779 271.469 230.098 263.65 157.098 230.469 157.098" fill="#ffb6b6"/>
    <path d="M861.31381,690.55887h24.09571V580.09012A107.65288,107.65288,0,0,0,777.87876,472.55887H553.94028A107.65288,107.65288,0,0,0,446.40952,580.09012V690.55887h24.0957V615.09012A108.65356,108.65356,0,0,1,579.036,506.55887H752.78305A108.65356,108.65356,0,0,1,861.31381,615.09012Z"
          transform="translate(-255.61478 -237.96119)" fill="#e6e6e6"/>
    <path d="M568.509,632.7673l-25.68043-7.775a88.4837,88.4837,0,0,1-2.50888-20.963,8.39912,8.39912,0,0,1,13.815-6.35513c13.77338,11.81381,33.94829,18.11782,46.96791,31.58028a52.07341,52.07341,0,0,1,13.888,42.946l5.621,18.18083a87.2586,87.2586,0,0,1-63.97667-35.28461,84.28716,84.28716,0,0,1-10.12173-18.565C557.40487,635.29616,568.509,632.7673,568.509,632.7673Z"
          transform="translate(-255.61478 -237.96119)" fill="#f2f2f2"/>
    <path d="M635.438,662.5404l13.09791-3.96554q.02533-.10428.0502-.2087a8.409,8.409,0,0,0-12.48265-9.09359c-5.94563,3.532-12.54779,6.57335-17.28929,11.47613a26.55922,26.55922,0,0,0-7.08337,21.904l-2.86689,9.27285a44.50485,44.50485,0,0,0,32.6303-17.99636,42.98864,42.98864,0,0,0,5.16243-9.46881C641.10146,663.83021,635.438,662.5404,635.438,662.5404Z"
          transform="translate(-255.61478 -237.96119)" fill="#f2f2f2"/>
    <path d="M741.46337,391.0911H690.45778a2.72143,2.72143,0,0,0-2.71731,2.72433v80.57381h56.44722V393.81543A2.7229,2.7229,0,0,0,741.46337,391.0911Zm-25.3312,45.78106a6.05117,6.05117,0,0,1-6.02292-6.02289v-9.29349a6.02291,6.02291,0,0,1,12.04581,0v9.29349a6.05109,6.05109,0,0,1-6.02289,6.02289Z"
          transform="translate(-255.61478 -237.96119)" fill="#3f3d56"/>
    <path d="M825.92405,265.34656H607.895a7.07769,7.07769,0,0,0-7.06643,7.06638V419.53985a7.07318,7.07318,0,0,0,7.06643,7.06638h218.029a7.07318,7.07318,0,0,0,7.06643-7.06638V272.41294A7.07769,7.07769,0,0,0,825.92405,265.34656Z"
          transform="translate(-255.61478 -237.96119)" fill="#3f3d56"/>
    <path d="M824.10413,270.4505H609.71662a3.78733,3.78733,0,0,0-3.7791,3.787V417.71769a3.78562,3.78562,0,0,0,3.7791,3.7791H824.10413a3.78562,3.78562,0,0,0,3.7791-3.7791V274.23747A3.78733,3.78733,0,0,0,824.10413,270.4505Z"
          transform="translate(-255.61478 -237.96119)" fill="#fff"/>
    <path d="M687.56538,471.812v7.77377a1.52285,1.52285,0,0,0,1.51976,1.51972h53.75792a1.52739,1.52739,0,0,0,1.51972-1.51972V471.812Z"
          transform="translate(-255.61478 -237.96119)" fill="#3f3d56"/>
    <path d="M782.34508,483.81055H654.7962a2.34634,2.34634,0,0,1-2.296-2.82966l1.97916-9.39973a2.35648,2.35648,0,0,1,2.29564-1.86291H780.36631a2.35648,2.35648,0,0,1,2.29565,1.86291l1.97915,9.39973a2.34634,2.34634,0,0,1-2.296,2.82966Z"
          transform="translate(-255.61478 -237.96119)" fill="#3f3d56"/>
    <rect x="402.06594" y="233.44964" width="3.92838" height="2.35703" rx="0.48819" fill="#e6e6e6"/>
    <rect x="409.92271" y="233.44964" width="3.92838" height="2.35703" rx="0.48819" fill="#e6e6e6"/>
    <rect x="417.77947" y="233.44964" width="3.92838" height="2.35703" rx="0.48819" fill="#e6e6e6"/>
    <rect x="425.63623" y="233.44964" width="3.92838" height="2.35703" rx="0.48819" fill="#e6e6e6"/>
    <rect x="433.493" y="233.44964" width="3.92838" height="2.35703" rx="0.48819" fill="#e6e6e6"/>
    <rect x="441.34976" y="233.44964" width="3.92838" height="2.35703" rx="0.48819" fill="#e6e6e6"/>
    <rect x="449.20652" y="233.44964" width="3.92838" height="2.35703" rx="0.48819" fill="#e6e6e6"/>
    <rect x="457.06329" y="233.44964" width="3.92838" height="2.35703" rx="0.48819" fill="#e6e6e6"/>
    <rect x="464.92005" y="233.44964" width="3.92838" height="2.35703" rx="0.48819" fill="#e6e6e6"/>
    <rect x="472.77682" y="233.44964" width="3.92838" height="2.35703" rx="0.48819" fill="#e6e6e6"/>
    <rect x="480.63358" y="233.44964" width="3.92838" height="2.35703" rx="0.48819" fill="#e6e6e6"/>
    <rect x="488.49034" y="233.44964" width="3.92838" height="2.35703" rx="0.48819" fill="#e6e6e6"/>
    <rect x="496.34711" y="233.44964" width="3.92838" height="2.35703" rx="0.48819" fill="#e6e6e6"/>
    <rect x="504.20387" y="233.44964" width="3.92838" height="2.35703" rx="0.48819" fill="#e6e6e6"/>
    <rect x="512.06064" y="233.44964" width="3.92838" height="2.35703" rx="0.48819" fill="#e6e6e6"/>
    <rect x="519.9174" y="233.44964" width="3.92838" height="2.35703" rx="0.48819" fill="#e6e6e6"/>
    <rect x="401.9731" y="237.37802" width="3.92838" height="2.35703" rx="0.48819" fill="#e6e6e6"/>
    <rect x="409.82987" y="237.37802" width="3.92838" height="2.35703" rx="0.48819" fill="#e6e6e6"/>
    <rect x="417.68663" y="237.37802" width="3.92838" height="2.35703" rx="0.48819" fill="#e6e6e6"/>
    <rect x="425.54339" y="237.37802" width="3.92838" height="2.35703" rx="0.48819" fill="#e6e6e6"/>
    <rect x="433.40016" y="237.37802" width="3.92838" height="2.35703" rx="0.48819" fill="#e6e6e6"/>
    <rect x="441.25692" y="237.37802" width="3.92838" height="2.35703" rx="0.48819" fill="#e6e6e6"/>
    <rect x="449.11369" y="237.37802" width="3.92838" height="2.35703" rx="0.48819" fill="#e6e6e6"/>
    <rect x="456.97045" y="237.37802" width="3.92838" height="2.35703" rx="0.48819" fill="#e6e6e6"/>
    <rect x="464.82721" y="237.37802" width="3.92838" height="2.35703" rx="0.48819" fill="#e6e6e6"/>
    <rect x="472.68398" y="237.37802" width="3.92838" height="2.35703" rx="0.48819" fill="#e6e6e6"/>
    <rect x="480.54074" y="237.37802" width="3.92838" height="2.35703" rx="0.48819" fill="#e6e6e6"/>
    <rect x="488.39751" y="237.37802" width="3.92838" height="2.35703" rx="0.48819" fill="#e6e6e6"/>
    <rect x="496.25427" y="237.37802" width="3.92838" height="2.35703" rx="0.48819" fill="#e6e6e6"/>
    <rect x="504.11103" y="237.37802" width="3.92838" height="2.35703" rx="0.48819" fill="#e6e6e6"/>
    <rect x="511.9678" y="237.37802" width="3.92838" height="2.35703" rx="0.48819" fill="#e6e6e6"/>
    <rect x="519.82456" y="237.37802" width="3.92838" height="2.35703" rx="0.48819" fill="#e6e6e6"/>
    <rect x="439.68557" y="242.09208" width="31.42706" height="2.35703" rx="0.48819" fill="#e6e6e6"/>
    <polygon points="183.897 368.973 174.522 374.778 146.903 340.828 160.739 332.262 183.897 368.973" fill="#ffb6b6"/>
    <path d="M447.60543,619.06017l-7.54133,3.36653-4.5245-6.519-.26914,8.65893-20.0014,8.92883a4.9238,4.9238,0,0,1-6.21365-7.05552l11.04809-18.1615-3.21326-7.198,17.248-6.49708Z"
          transform="translate(-255.61478 -237.96119)" fill="#2f2e41"/>
    <path d="M413.24955,600.40319l15.8338-15.34432c-11.7637-29.02906-12.70376-47.02215-29.01206-82.13088,38.693,7.91409,66.35622,7.433,98.35619.33742,10.83323-2.3646,38.78551-23.95594,36.48735-35.02685q-.16112-.77624-.3807-1.538c-3.43482-11.7114-1.01609-29.64574-8.45078-42.64173-13.75489-5.18582-34.65268,12.32556-51,23-7.88255,5.14713-2.11233,12.1612-8,14l-22.569,7.32613-55.3725-8.943a20.51148,20.51148,0,0,0-23.37624,17.35929q-.14055.9018-.20361,1.81341c2.54779,14.10343,5.20366,27.83673,8.063,40.87333.923,4.20807-.6352,12.27539,2.8357,12.39545s2.07272,8.46395,3.15368,12.54322C386.2692,569.54028,390.47748,581.69383,413.24955,600.40319Z"
          transform="translate(-255.61478 -237.96119)" fill="#2f2e41"/>
    <polygon points="127.329 429.745 117.562 424.647 133.015 383.711 147.43 391.235 127.329 429.745" fill="#ffb6b6"/>
    <path d="M381.31592,637.14483l15.6612,10.78289c19.19456-27.75961,31.65753-64.854,40.93905-106.36,36.13851-15.76472,67.76063-33.80089,89.79648-57.99314a20.9147,20.9147,0,0,0-1.20931-29.095q-.5784-.5422-1.196-1.03885c-9.54471-7.60285-30.74283-3.22816-44.29181-9.58275l-24.204,33.49961,2.78211,7.80252-8.41994,4.099-7.1092,3.46086-8.13813,3.96175L409.24825,509.669a20.4837,20.4837,0,0,0-9.089,27.62925q.40434.81821.87758,1.59992l-9.908,49.36015s2.72631,8.59307-1.56348,7.789-1.95215,9.72532-1.95215,9.72532Z"
          transform="translate(-255.61478 -237.96119)" fill="#2f2e41"/>
    <path d="M377.029,690.26656l-7.32146-3.82115,2.30077-7.5944-6.95466,5.16548-19.41828-10.13462a4.9238,4.9238,0,0,1,1.67253-9.25162l21.09632-2.61639,3.64718-6.98813,15.80243,9.48616Z"
          transform="translate(-255.61478 -237.96119)" fill="#2f2e41"/>
    <!--  thoughts  -->
    <g transform="translate(0 0) scale(0.35 0.35)" opacity="1">
        <circle cx="60" cy="60" r="50" transform="rotate(-160 60 60) translate(-290 100)" fill="none"
                stroke-dashoffset="314" stroke-dasharray="314" stroke="#3f3d56" stroke-width="2">
            <animate attributeName="stroke-dashoffset" begin="0"
                     values="314;314;170;170"
                     keyTimes="0;.075;.15;1"
                     dur="30s"
                     repeatCount="indefinite"/>
        </circle>
        <path d="M478.72848,249.30339,446.952,250.61952a4.50052,4.50052,0,0,1-3.6021-1.55491,4.408,4.408,0,0,1-1.01706-3.70669,86.53527,86.53527,0,0,0-2.075-39.95275,4.47106,4.47106,0,0,1,2.20795-5.22671c13.0155-6.76218,25.211-7.10505,36.24566-1.02035a4.52655,4.52655,0,0,1,2.27165,3.06,141.5524,141.5524,0,0,1,2.04182,43.03244A4.49087,4.49087,0,0,1,478.72848,249.30339Z"
              transform="translate(-147.74411 -156.06942)" fill="#00a1ff"/>
        <path d="M477.38371,228.50575,453.087,229.51207a2.2811,2.2811,0,1,1-.1888-4.55829l24.2967-1.00633a2.2811,2.2811,0,0,1,.18879,4.5583Z"
              transform="translate(-147.74411 -156.06942)" fill="#fff"/>
        <path d="M477.05265,220.5126l-24.2967,1.00633a2.2811,2.2811,0,0,1-.18879-4.5583l24.2967-1.00633a2.2811,2.2811,0,0,1,.18879,4.5583Z"
              transform="translate(-147.74411 -156.06942)" fill="#fff"/>
        <g>
            <path d="M686.68589,239.2391H585.02083a10.28839,10.28839,0,0,1-10.27672-10.27678V166.3462a10.28839,10.28839,0,0,1,10.27672-10.27678H686.68589a10.28841,10.28841,0,0,1,10.27678,10.27678v62.61613A10.28841,10.28841,0,0,1,686.68589,239.2391Z"
                  transform="translate(-147.74411 -156.06942)" fill="#e6e6e6"/>
            <path d="M646.29275,231.17371H592.16726a9.63563,9.63563,0,0,1-9.625-9.62451v-47.79a9.63563,9.63563,0,0,1,9.625-9.62451h87.37256a9.63521,9.63521,0,0,1,9.62451,9.62451v14.54346A42.91981,42.91981,0,0,1,646.29275,231.17371Z"
                  transform="translate(-147.74411 -156.06942)" fill="#fff"/>
            <path d="M670.82362,190.3034H600.8831a2.281,2.281,0,1,1,0-4.562h69.94052a2.281,2.281,0,1,1,0,4.562Z"
                  transform="translate(-147.74411 -156.06942)" fill="#00a1ff"/>
            <path d="M611.82362,199.31674H600.8831a2.28111,2.28111,0,0,1,0-4.56221h10.94052a2.28111,2.28111,0,0,1,0,4.56221Z"
                  transform="translate(-147.74411 -156.06942)" fill="#00a1ff"/>
            <path d="M631.20063,208.33007H600.8831a2.2811,2.2811,0,0,1,0-4.56221h30.31753a2.28111,2.28111,0,0,1,0,4.56221Z"
                  transform="translate(-147.74411 -156.06942)" fill="#00a1ff"/>
            <animate attributeName="opacity"
                     values="0;0;1;1"
                     keyTimes="0;.15;.16;1"
                     dur="30s"
                     repeatCount="indefinite"/>
        </g>
        <circle cx="568.56211" cy="238.72495" r="21.50616" transform="translate(-82.08946 439.49802) rotate(-58.13426)"
                fill="#3f3d56"/>
        <circle cx="60" cy="60" r="50"
                transform="rotate(-200 60 60) translate(-150 -250) scale(1.8)"
                fill="none" stroke="#3f3d56" stroke-width="1"
                stroke-dashoffset="314"
                stroke-dasharray="314"
        >
            <animate attributeName="stroke-dashoffset" begin="0"
                     values="314;170;170"
                     keyTimes="0;.075;1"
                     dur="30s"
                     repeatCount="indefinite"/>
        </circle>
        <g>
            <path d="M364.32878,313.36151H332.52507a4.50049,4.50049,0,0,1-3.53466-1.70263,4.40807,4.40807,0,0,1-.8628-3.74561,86.51423,86.51423,0,0,0-.49707-40.30908,4.4618,4.4618,0,0,1,2.05762-4.9375c11.52051-6.70605,23.82324-6.50147,36.56543.60986a4.5125,4.5125,0,0,1,2.293,3.23438,141.56107,141.56107,0,0,1,.24267,42.979A4.49087,4.49087,0,0,1,364.32878,313.36151Z"
                  transform="translate(-147.74411 -156.06942)" fill="#00a1ff"/>
            <path d="M349.46882,282.5127H338.5283a2.28111,2.28111,0,0,1,0-4.56221h10.94052a2.28111,2.28111,0,0,1,0,4.56221Z"
                  transform="translate(-147.74411 -156.06942)" fill="#fff"/>
            <path d="M362.84583,291.526H338.5283a2.2811,2.2811,0,0,1,0-4.56221h24.31753a2.28111,2.28111,0,0,1,0,4.56221Z"
                  transform="translate(-147.74411 -156.06942)" fill="#fff"/>
            <animate attributeName="opacity"
                     values="0;0;1;1"
                     keyTimes="0;.075;.085;1"
                     dur="30s"
                     repeatCount="indefinite"/>
        </g>
        <path d="M259.68589,405.2391H158.02083a10.28839,10.28839,0,0,1-10.27672-10.27678V332.3462a10.28839,10.28839,0,0,1,10.27672-10.27678H259.68589a10.28841,10.28841,0,0,1,10.27678,10.27678v62.61613A10.28841,10.28841,0,0,1,259.68589,405.2391Z"
              transform="translate(-147.74411 -156.06942)" fill="#e6e6e6"/>
        <path d="M219.29275,397.17371H165.16726a9.63563,9.63563,0,0,1-9.625-9.62451v-47.79a9.63563,9.63563,0,0,1,9.625-9.62451h87.37256a9.63521,9.63521,0,0,1,9.62451,9.62451v14.54346A42.91981,42.91981,0,0,1,219.29275,397.17371Z"
              transform="translate(-147.74411 -156.06942)" fill="#fff"/>
        <path d="M243.82362,356.3034H173.8831a2.281,2.281,0,1,1,0-4.562h69.94052a2.281,2.281,0,1,1,0,4.562Z"
              transform="translate(-147.74411 -156.06942)" fill="#00a1ff"/>
        <path d="M184.82362,365.31674H173.8831a2.28111,2.28111,0,0,1,0-4.56221h10.94052a2.28111,2.28111,0,0,1,0,4.56221Z"
              transform="translate(-147.74411 -156.06942)" fill="#00a1ff"/>
        <path d="M204.20063,374.33007H173.8831a2.28111,2.28111,0,0,1,0-4.56221h30.31753a2.2811,2.2811,0,0,1,0,4.56221Z"
              transform="translate(-147.74411 -156.06942)" fill="#00a1ff"/>
        <circle cx="281.56211" cy="402.72495" r="21.50616" transform="translate(-356.85653 273.17189) rotate(-58.13426)"
                fill="#3f3d56"/>
        <path d="M473.32878,373.36151H441.52507a4.50049,4.50049,0,0,1-3.53466-1.70263,4.40807,4.40807,0,0,1-.8628-3.74561,86.52041,86.52041,0,0,0-.47949-40.24023,4.4894,4.4894,0,0,1,2.124-4.978c15.44971-8.84375,27.68311-8.59961,37.39991.74658a4.4406,4.4406,0,0,1,1.2788,2.47608,141.55617,141.55617,0,0,1,.33838,43.57226A4.49087,4.49087,0,0,1,473.32878,373.36151Z"
              transform="translate(-147.74411 -156.06942)" fill="#ffdc5d"/>
        <path d="M460.46882,343.5127H449.5283a2.28111,2.28111,0,0,1,0-4.56221h10.94052a2.28111,2.28111,0,0,1,0,4.56221Z"
              transform="translate(-147.74411 -156.06942)" fill="#fff"/>
        <path d="M473.84583,352.526H449.5283a2.2811,2.2811,0,0,1,0-4.56221h24.31753a2.28111,2.28111,0,0,1,0,4.56221Z"
              transform="translate(-147.74411 -156.06942)" fill="#fff"/>
        <animate attributeName="opacity"
                 values="1;1;0;0"
                 keyTimes="0;0.2;0.21;1"
                 dur="30s"
                 repeatCount="indefinite"/>
    </g>
    <!--  hand  -->
    <g transform="translate(490 -310) scale(-0.9 0.9)">
        <g transform="rotate(10 300 470)">
            <path d="M501.23519,412.40164a9.099,9.099,0,0,1-9.882,9.84933l-13.30053,29.47252L469.072,437.522l14.00724-25.81036a9.14829,9.14829,0,0,1,18.156.69Z"
                  transform="translate(-91.08461 -73.86566)" fill="#ffb6b6"/>
            <path d="M467.40249,500.07859l-60.93918,46.62719a22.96509,22.96509,0,0,1-32.159-4.27852h0a22.94063,22.94063,0,0,1,7.83978-34.3978l60.75267-30.82227,27.17776-52.9478,18.24885,5.42336Z"
                  transform="translate(-91.08461 -73.86566)" fill="#00a1ff"/>
            <animateTransform attributeName="transform"
                              type="rotate"
                              values="50 300 470;50 300 470;10 300 470;10 300 470;50 300 470"
                              keyTimes="0;0.48;0.52;0.98;1"
                              dur="30s"
                              repeatCount="indefinite"
            />
        </g>
        <path d="M337.61835,555.47064l-1.23551,45.2439C319.38078,629.4389,317.447,643.38708,322.15317,650.824l69.91043-25.53754,1.17818-2.81333,3.65072-20.21554,6.61869-20.8586c1.16539-2.17935,16.98742-15.56974,2.15557-40.96966l-29.838-40.19607L351.92079,498.865c-3.94145,10.11617,3.16843,15.63556-3.9329,17.96823C331.92963,531.5514,334.28854,533.94654,337.61835,555.47064Z"
              transform="translate(-91.08461 -73.86566)" fill="#00a1ff"/>
        <path d="M290.072,682.49005a9.099,9.099,0,0,1,6.12468-12.536l2.94888-32.2,13.12526,10.491-4.81255,28.96925a9.1483,9.1483,0,0,1-17.38627,5.27571Z"
              transform="translate(-91.08461 -73.86566)" fill="#ffb6b6"/>
        <path d="M293.42418,588.57166,335.8,524.60318a22.96508,22.96508,0,0,1,31.79355-6.45584h0a22.94063,22.94063,0,0,1,3.82071,35.0724l-47.35984,48.96882-8.401,58.91963-19.01948.83209Z"
              transform="translate(-91.08461 -73.86566)" fill="#00a1ff"/>
    </g>
    <!--  head  -->
    <g>
        <g>
            <g>
                <path d="M527.60118,309.43775a3.82674,3.82674,0,0,1-4.314,1.25745,5.82854,5.82854,0,0,1-.6787-.24764,28.82552,28.82552,0,0,0-.36725-7.98934,21.36236,21.36236,0,0,1-1.63966,6.57017,8.91079,8.91079,0,0,1-1.75993-2.51274,22.42528,22.42528,0,0,1-1.60307-6.0463c-1.20439-7.0881-2.39281-14.46206-.42756-21.389,2.87885-10.119,11.95723-17.39344,15.74893-27.21118l1.86811-1.677c3.19777,5.44543,3.33934,12.212,2.03576,18.38674-1.29657,6.187-3.90949,11.99371-5.97512,17.96023s-3.61313,12.31309-2.6548,18.55641C528.05421,306.56558,528.39023,308.18131,527.60118,309.43775Z"
                      transform="translate(-260.61478 -230.96119)" fill="#2f2e41"/>
                <circle cx="253.34259" cy="43.96382" r="23.0557" fill="#ffb6b6"/>
                <path d="M534.08335,268.05887c-.59.17-9.25,1.3-13,2-3.68.69-4.32-4-7.33-3.12a.1266.1266,0,0,0-.01-.06,28.34378,28.34378,0,0,0-2.37-7.17,21.17806,21.17806,0,0,1,.17005,6.6.98419.98419,0,0,1-.02.17c-.01.1-.03.19-.04.29-3.18-1.4-5.2-.15-7.4.29-2.46.49-4.38,1.57-3,10,2.83,17.34,17.55,23.53,15,35-.5,2.27-1.76,5.11-3.34,5.82a28.34378,28.34378,0,0,0-2.37-7.17,21.17806,21.17806,0,0,1,.17005,6.6c-2.45-2.65-4.22-11.91-12.46-19.25-2.03-1.8-12.2-12.48-13.42-15a32.13615,32.13615,0,0,1,.54,6.11,29.41586,29.41586,0,0,1-.28,4.1,1.15145,1.15145,0,0,1-.03.26c-.01.16-.04.3-.06.45-.02.17-.05.33-.08.5-3.33-.48-6.28-1.06-7.67-2.42-6.76-6.58,1.49-19.4,6-31,6.45-16.61,25.18-18.82,27-19,8.02-.81,21.57.91,26,10C539.18332,258.42887,537.20334,267.15885,534.08335,268.05887Z"
                      transform="translate(-260.61478 -230.96119)" fill="#2f2e41"/>
                <path d="M485.46837,271.80814l16.70111-25.98028a25.61246,25.61246,0,0,0-13.18811-3.4596,16.41918,16.41918,0,0,0-12.10913,5.71143c-3.41095,4.2392-3.99622,10.23181-2.7182,15.52069C474.59538,265.427,483,259,481,262c-1.64185,2.34882-4.3266,12.2215-5,15-1.08368,4.4718-4.06343,9.06211-1.40907,12.82053,3.13885,4.44446,8.74,6.65363,14.17651,6.878s10.7876-1.28223,15.95416-2.98871Z"
                      transform="translate(-260.61478 -230.96119)" fill="#2f2e41"/>
                <path d="M491.88559,270.78348a1.00011,1.00011,0,0,1-.27295-1.96191c.26221-.43262.15479-2.25342.06836-3.72461-.32519-5.52393-.86963-14.769,8.106-21.00977a.99976.99976,0,0,1,1.1416,1.6416c-8.05469,5.60108-7.57129,13.81543-7.251,19.25049.18262,3.10742.315,5.352-1.56982,5.7793A.99351.99351,0,0,1,491.88559,270.78348Z"
                      transform="translate(-260.61478 -230.96119)" fill="#00a1ff"/>
                <animateTransform attributeName="transform"
                                  type="rotate"
                                  values="0 240 70;0 240 70; 15 240 70;15 240 70;0 240 70;0 240 70"
                                  keyTimes="0;0.5; 0.55;0.8;0.85; 1"
                                  dur="15s"
                                  repeatCount="indefinite"
                />
            </g>
            <animateTransform attributeName="transform"
                              type="scale"
                              values="1 1;-1 1;-1 1;1 1;1 1"
                              keyTimes="0;0.01;0.2;0.21;1"
                              dur="30s"
                              repeatCount="indefinite"
            />
        </g>
        <animateTransform attributeName="transform"
                          type="translate"
                          values="0 0;490 0;490 0;0 0;0 0"
                          keyTimes="0;0.01;0.2;0.21;1"
                          dur="30s"
                          repeatCount="indefinite"
        />
    </g>
    <path d="M255.61478,689.91176a1.18648,1.18648,0,0,0,1.18292,1.19H972.09481a1.19,1.19,0,0,0,0-2.38h-715.29a1.18649,1.18649,0,0,0-1.19,1.183Z"
          transform="translate(-255.61478 -237.96119)" fill="#ccc"/>
    <!-- screen 1  -->
    <g opacity="0">
        <path d="M792.13789,306.46885v75.52a19.07267,19.07267,0,0,1-19.07,19.07h-94.52a19.08094,19.08094,0,0,1-17.51-11.49,17.9844,17.9844,0,0,1-1.13-3.51,17.36726,17.36726,0,0,0,6.3,1.17h94.52a17.60458,17.60458,0,0,0,17.58-17.58v-75.52a17.36787,17.36787,0,0,0-1.17-6.3,17.98805,17.98805,0,0,1,3.51,1.13A19.08093,19.08093,0,0,1,792.13789,306.46885Z"
              transform="translate(-255.61478 -237.96119)" fill="#f2f2f2"/>
        <!--  loader  -->
        <g transform="translate(410 50)">
            <path fill="#00a1ff"
                  d="M73,50c0-12.7-10.3-23-23-23S27,37.3,27,50 M30.9,50c0-10.5,8.5-19.1,19.1-19.1S69.1,39.5,69.1,50">
                <animateTransform
                        attributeName="transform"
                        attributeType="XML"
                        type="rotate"
                        dur="1s"
                        from="0 50 50"
                        to="360 50 50"
                        repeatCount="indefinite"/>
            </path>
            <animate attributeName="opacity"
                     values="1;1;0;0;1;1"
                     keyTimes="0; 0.45; 0.5; 0.98; 0.99; 1"
                     dur="15s"
                     repeatCount="indefinite"/>
        </g>
        <!--  code  -->
        <g>
            <rect x="425" y="92" width="20" height="3" rx="3" fill="#00a1ff">
                <animate
                        attributeName="width"
                        attributeType="XML"
                        values="0;0;20;20"
                        keyTimes="0 ; 0.6 ; 0.63 ; 1"
                        dur="15s"
                        repeatCount="indefinite"/>
            </rect>
            <rect x="453" y="92" width="20" height="3" rx="3" fill="#00a1ff">
                <animate
                        attributeName="width"
                        attributeType="XML"
                        values="0;0;20;20"
                        keyTimes="0 ; 0.63; 0.66 ; 1"
                        dur="15s"
                        repeatCount="indefinite"/>
            </rect>
            <rect x="480" y="92" width="35" height="3" rx="3" fill="#00a1ff">
                <animate
                        attributeName="width"
                        attributeType="XML"
                        values="0;0;35;35"
                        keyTimes="0 ; 0.66 ; 0.71 ; 1"
                        dur="15s"
                        repeatCount="indefinite"/>
            </rect>
            <rect x="425" y="104" width="33" height="3" rx="3" fill="#00a1ff">
                <animate
                        attributeName="width"
                        attributeType="XML"
                        values="0;0;33;33"
                        keyTimes="0 ; 0.71 ; 0.76 ; 1"
                        dur="15s"
                        repeatCount="indefinite"/>
            </rect>
            <rect x="465" y="104" width="20" height="3" rx="3" fill="#00a1ff">
                <animate
                        attributeName="width"
                        attributeType="XML"
                        values="0;0;20;20"
                        keyTimes="0 ; 0.76 ; 0.8 ; 1"
                        dur="15s"
                        repeatCount="indefinite"/>
            </rect>

            <rect x="422" y="69" width="32" height="3" rx="3" fill="#00a1ff">
                <animate
                        attributeName="width"
                        attributeType="XML"
                        values="0;0;32;32"
                        keyTimes="0 ;0.55; 0.6 ; 1"
                        dur="15s"
                        repeatCount="indefinite"/>
            </rect>
            <rect x="435" y="130" width="35" height="3" rx="3" fill="#00a1ff">
                <animate
                        attributeName="width"
                        attributeType="XML"
                        values="0;0;35;35"
                        keyTimes="0 ;0.55; 0.6 ; 1"
                        dur="15s"
                        repeatCount="indefinite"/>
            </rect>

            <path d="M710.88008,318.72742a1.35512,1.35512,0,0,1-.83239-2.425l7.38326-5.73907a2.71359,2.71359,0,0,0,.328-3.9837l-6.19864-6.7106a1.35508,1.35508,0,1,1,1.99032-1.83946l9.20523,9.96483a1.3553,1.3553,0,0,1-.16344,1.98966l-10.88125,8.45819A1.35141,1.35141,0,0,1,710.88008,318.72742Z"
                  transform="translate(-255.61478 -237.96119)" fill="#00a1ff"/>
            <path d="M678.21581,318.72742a1.35512,1.35512,0,0,0,.83239-2.425l-7.38326-5.73907a2.71358,2.71358,0,0,1-.328-3.9837l6.19864-6.7106a1.35508,1.35508,0,0,0-1.99032-1.83946l-9.20523,9.96483a1.35531,1.35531,0,0,0,.16343,1.98966l10.88126,8.45819A1.35136,1.35136,0,0,0,678.21581,318.72742Z"
                  transform="translate(-255.61478 -237.96119)" fill="#00a1ff"/>
            <path d="M728.49652,378.35231a1.35512,1.35512,0,0,1-.83239-2.425l7.38326-5.73907a2.71357,2.71357,0,0,0,.328-3.98369l-6.19864-6.71061a1.35508,1.35508,0,0,1,1.99032-1.83946l9.20523,9.96483a1.35531,1.35531,0,0,1-.16343,1.98966l-10.88125,8.4582A1.35146,1.35146,0,0,1,728.49652,378.35231Z"
                  transform="translate(-255.61478 -237.96119)" fill="#00a1ff"/>
            <path d="M678.21581,378.35231a1.35512,1.35512,0,0,0,.83239-2.425l-7.38326-5.73907a2.71357,2.71357,0,0,1-.328-3.98369l6.19864-6.71061a1.35508,1.35508,0,1,0-1.99032-1.83946l-9.20523,9.96483a1.35531,1.35531,0,0,0,.16343,1.98966l10.88126,8.4582A1.35142,1.35142,0,0,0,678.21581,378.35231Z"
                  transform="translate(-255.61478 -237.96119)" fill="#00a1ff"/>
            <path d="M680.78914,374.11256l6.06111-13.86516a1.51321,1.51321,0,0,1,2.773,1.21223l-6.06112,13.86515a1.51321,1.51321,0,1,1-2.773-1.21222Z"
                  transform="translate(-255.61478 -237.96119)" fill="#00a1ff"/>
            <animate attributeName="opacity"
                     values="0;0;1;1;0;0"
                     keyTimes="0; 0.5; 0.55; 0.97; 0.98; 1"
                     dur="15s"
                     repeatCount="indefinite"/>
        </g>
        <animate attributeName="opacity"
                 values="1;1;0;0;1"
                 keyTimes="0 ; 0.48 ; 0.49 ; 0.99 ; 1"
                 dur="30s"
                 repeatCount="indefinite"/>
    </g>
    <!--  screen 2  -->
    <g transform="translate(355 60) scale(0.3,0.3)">
        <path d="M956.0232,485.063c0-31.58264-25.62012-106.52668-57.22413-106.52668S841.575,453.48038,841.575,485.063a57.22414,57.22414,0,0,0,114.44825,0Z"
              transform="translate(-243.9768 -259.83915)" fill="#f2f2f2"/>
        <path d="M898.79907,611.7802a.65441.65441,0,0,1-.65437-.65438V477.54089a.65437.65437,0,1,1,1.30875,0V611.12582A.65441.65441,0,0,1,898.79907,611.7802Z"
              transform="translate(-243.9768 -259.83915)" fill="#ccc"/>
        <path d="M898.79939,502.49924a.65287.65287,0,0,1-.49477-.22558l-32.91089-37.95387a.65449.65449,0,0,1,.98892-.85759l32.91088,37.95386a.65456.65456,0,0,1-.49414,1.08318Z"
              transform="translate(-243.9768 -259.83915)" fill="#ccc"/>
        <path d="M898.79907,524.403a.65438.65438,0,0,1-.46266-1.117L917.037,504.58506a.65431.65431,0,0,1,.92533.92533l-18.70055,18.70087A.652.652,0,0,1,898.79907,524.403Z"
              transform="translate(-243.9768 -259.83915)" fill="#ccc"/>
        <path d="M325.0232,540.42306c0-17.78486-14.42723-59.98744-32.22413-59.98744S260.575,522.6382,260.575,540.42306a32.22413,32.22413,0,0,0,64.44825,0Z"
              transform="translate(-243.9768 -259.83915)" fill="#f2f2f2"/>
        <path d="M292.79907,611.7802a.36851.36851,0,0,1-.36849-.36849V536.18719a.3685.3685,0,1,1,.737,0v75.22452A.36851.36851,0,0,1,292.79907,611.7802Z"
              transform="translate(-243.9768 -259.83915)" fill="#ccc"/>
        <path d="M292.79925,550.24176a.36763.36763,0,0,1-.27861-.127L273.98782,528.7421a.36856.36856,0,0,1,.55688-.48293l18.53281,21.37264a.36858.36858,0,0,1-.27826.61Z"
              transform="translate(-243.9768 -259.83915)" fill="#ccc"/>
        <path d="M292.79907,562.57622a.36849.36849,0,0,1-.26053-.629l10.53068-10.53085a.36845.36845,0,0,1,.52107.52107l-10.53068,10.53086A.36714.36714,0,0,1,292.79907,562.57622Z"
              transform="translate(-243.9768 -259.83915)" fill="#ccc"/>
        <path d="M257.89721,611.29191a13.45275,13.45275,0,1,1,26.90551,0" transform="translate(-243.9768 -259.83915)"
              fill="#f2f2f2"/>
        <path d="M271.35,611.29191a.36361.36361,0,0,1-.36359-.36359v-7.09a.36359.36359,0,0,1,.72718,0v7.09A.36361.36361,0,0,1,271.35,611.29191Z"
              transform="translate(-243.9768 -259.83915)" fill="#ccc"/>
        <path d="M271.34979,608.85562a.36193.36193,0,0,1-.23665-.0877l-4.363-3.74471a.36358.36358,0,1,1,.47361-.55177l4.36306,3.74471a.36359.36359,0,0,1-.237.63947Z"
              transform="translate(-243.9768 -259.83915)" fill="#ccc"/>
        <path d="M299.34624,611.29191a13.45276,13.45276,0,0,1,26.90552,0" transform="translate(-243.9768 -259.83915)"
              fill="#f2f2f2"/>
        <path d="M312.799,611.29191a.36361.36361,0,0,1-.36359-.36359v-7.09a.36359.36359,0,1,1,.72718,0v7.09A.36361.36361,0,0,1,312.799,611.29191Z"
              transform="translate(-243.9768 -259.83915)" fill="#ccc"/>
        <path d="M312.79882,608.85562a.362.362,0,0,1-.23665-.0877l-4.36306-3.74471a.36359.36359,0,0,1,.47366-.55177l4.36306,3.74471a.36359.36359,0,0,1-.237.63947Z"
              transform="translate(-243.9768 -259.83915)" fill="#ccc"/>
        <!--  circle  -->
        <g>
            <path d="M548.8145,557.83915c-82.15894,0-149-66.8413-149-149s66.84106-149,149-149,149,66.84131,149,149S630.97343,557.83915,548.8145,557.83915Zm0-296c-81.05616,0-147,65.94385-147,147s65.94384,147,147,147,147-65.94384,147-147S629.87065,261.83915,548.8145,261.83915Z"
                  transform="translate(-243.9768 -259.83915)" fill="#ccc"/>
            <path d="M548.8145,397.83915a1,1,0,0,1-1-1v-136a1,1,0,0,1,2,0v136A1.00005,1.00005,0,0,1,548.8145,397.83915Z"
                  transform="translate(-243.9768 -259.83915)" fill="#ccc"/>
            <path d="M696.8145,409.83915h-136a1,1,0,0,1,0-2h136a1,1,0,0,1,0,2Z"
                  transform="translate(-243.9768 -259.83915)"
                  fill="#ccc"/>
            <path d="M536.8145,409.83915H400.87895a1,1,0,0,1,0-2H536.8145a1,1,0,0,1,0,2Z"
                  transform="translate(-243.9768 -259.83915)" fill="#ccc"/>
            <path d="M548.8145,557.83915a1,1,0,0,1-1-1v-136a1,1,0,0,1,2,0v136A1.00005,1.00005,0,0,1,548.8145,557.83915Z"
                  transform="translate(-243.9768 -259.83915)" fill="#ccc"/>
            <path d="M557.63139,401.71318a1,1,0,0,1-.707-1.707l95.74341-95.74366a.99989.99989,0,1,1,1.41406,1.41407l-95.74341,95.74365A.99636.99636,0,0,1,557.63139,401.71318Z"
                  transform="translate(-243.9768 -259.83915)" fill="#ccc"/>
            <path d="M539.99785,401.71318a.99638.99638,0,0,1-.707-.293l-95.74365-95.74365a.99989.99989,0,1,1,1.41406-1.41407l95.74366,95.74366a1,1,0,0,1-.707,1.707Z"
                  transform="translate(-243.9768 -259.83915)" fill="#ccc"/>
            <path d="M653.3748,513.70878a.99631.99631,0,0,1-.707-.293l-95.74341-95.74365a.99989.99989,0,0,1,1.41406-1.41406l95.74341,95.74365a1,1,0,0,1-.707,1.707Z"
                  transform="translate(-243.9768 -259.83915)" fill="#ccc"/>
            <path d="M444.25419,513.70878a1,1,0,0,1-.707-1.707l95.74365-95.74365a.99989.99989,0,0,1,1.41407,1.41406l-95.74366,95.74365A.9963.9963,0,0,1,444.25419,513.70878Z"
                  transform="translate(-243.9768 -259.83915)" fill="#ccc"/>
            <path d="M548.8145,511.33915a102.5,102.5,0,1,1,102.5-102.5A102.6161,102.6161,0,0,1,548.8145,511.33915Zm0-203a100.5,100.5,0,1,0,100.5,100.5A100.61381,100.61381,0,0,0,548.8145,308.33915Z"
                  transform="translate(-243.9768 -259.83915)" fill="#ccc"/>
            <animateTransform attributeName="transform"
                              type="rotate"
                              values="0 305 150;360 305 150"
                              dur="10s"
                              repeatCount="indefinite"
            />
        </g>
        <!--  booths  -->
        <g>
            <g>
                <rect x="287.83777" y="31" width="33" height="18" fill="#ccc"/>
                <rect x="289.83777" y="35" width="13" height="14" fill="#fff"/>
                <rect x="305.83777" y="35" width="13" height="14" fill="#fff"/>
                <path d="M548.31457,328.33915a19.02161,19.02161,0,0,1-19-19v-.5a4.50508,4.50508,0,0,1,4.5-4.5h29a4.50508,4.50508,0,0,1,4.5,4.5v.5A19.0216,19.0216,0,0,1,548.31457,328.33915Z"
                      transform="translate(-243.9768 -259.83915)" fill="#ccc"/>
                <path d="M563.57849,295.33915H533.05066a2.49992,2.49992,0,0,1-2.23609-3.61816l6-12a2.486,2.486,0,0,1,2.23609-1.38184h18.52783a2.486,2.486,0,0,1,2.23608,1.38184l6,12a2.49992,2.49992,0,0,1-2.23608,3.61816Z"
                      transform="translate(-243.9768 -259.83915)" fill="#00a1ff"/>
                <animateTransform attributeName="transform"
                                  type="rotate"
                                  values="0 305 20;-90 305 20;-180 305 20;-270 305 20;-360 305 20"
                                  dur="10s"
                                  repeatCount="indefinite"
                />
            </g>
            <g>
                <rect x="376.83777" y="71" width="33" height="18" fill="#ccc"/>
                <rect x="378.83777" y="75" width="13" height="14" fill="#fff"/>
                <rect x="394.83777" y="75" width="13" height="14" fill="#fff"/>
                <path d="M637.31457,368.33915a19.02161,19.02161,0,0,1-19-19v-.5a4.50508,4.50508,0,0,1,4.5-4.5h29a4.50508,4.50508,0,0,1,4.5,4.5v.5A19.0216,19.0216,0,0,1,637.31457,368.33915Z"
                      transform="translate(-243.9768 -259.83915)" fill="#ccc"/>
                <path d="M628.05066,319.33915a1.492,1.492,0,0,0-1.34155.82911l-6,12a1.49982,1.49982,0,0,0,1.34155,2.17089h30.52783a1.49982,1.49982,0,0,0,1.34155-2.17089l-6-12a1.492,1.492,0,0,0-1.34155-.82911Z"
                      transform="translate(-243.9768 -259.83915)" fill="#00a1ff"/>
                <animateTransform attributeName="transform"
                                  type="rotate"
                                  values="0 395 60;-90 395 60;-180 395 60;-270 395 60;-360 395 60"
                                  dur="10s"
                                  repeatCount="indefinite"
                />
            </g>
            <g>
                <rect x="411.83777" y="161" width="33" height="18" fill="#ccc"/>
                <rect x="413.83777" y="165" width="13" height="14" fill="#fff"/>
                <rect x="429.83777" y="165" width="13" height="14" fill="#fff"/>
                <path d="M672.31457,458.33915a19.02161,19.02161,0,0,1-19-19v-.5a4.50508,4.50508,0,0,1,4.5-4.5h29a4.50508,4.50508,0,0,1,4.5,4.5v.5A19.0216,19.0216,0,0,1,672.31457,458.33915Z"
                      transform="translate(-243.9768 -259.83915)" fill="#ccc"/>
                <path d="M687.57849,425.33915H657.05066a2.49992,2.49992,0,0,1-2.23609-3.61816l6-12a2.486,2.486,0,0,1,2.23609-1.38184h18.52783a2.486,2.486,0,0,1,2.23608,1.38184l6,12a2.49992,2.49992,0,0,1-2.23608,3.61816Z"
                      transform="translate(-243.9768 -259.83915)" fill="#00a1ff"/>
                <animateTransform attributeName="transform"
                                  type="rotate"
                                  values="0 430 150;-90 430 150;-180 430 150;-270 430 150;-360 430 150"
                                  dur="10s"
                                  repeatCount="indefinite"
                />
            </g>
            <g>
                <rect x="374.83777" y="245" width="33" height="18" fill="#ccc"/>
                <rect x="376.83777" y="249" width="13" height="14" fill="#fff"/>
                <rect x="392.83777" y="249" width="13" height="14" fill="#fff"/>
                <path d="M635.31457,542.33915a19.02161,19.02161,0,0,1-19-19v-.5a4.50508,4.50508,0,0,1,4.5-4.5h29a4.50508,4.50508,0,0,1,4.5,4.5v.5A19.0216,19.0216,0,0,1,635.31457,542.33915Z"
                      transform="translate(-243.9768 -259.83915)" fill="#ccc"/>
                <path d="M650.57849,509.33915H620.05066a2.49992,2.49992,0,0,1-2.23609-3.61816l6-12a2.486,2.486,0,0,1,2.23609-1.38184h18.52783a2.486,2.486,0,0,1,2.23608,1.38184l6,12a2.49992,2.49992,0,0,1-2.23608,3.61816Z"
                      transform="translate(-243.9768 -259.83915)" fill="#00a1ff"/>
                <animateTransform attributeName="transform"
                                  type="rotate"
                                  values="0 390 235;-90 390 235;-180 390 235;-270 390 235;-360 390 235"
                                  dur="10s"
                                  repeatCount="indefinite"
                />
            </g>
            <g>
                <rect x="443.81457" y="330.83915" width="33" height="18"
                      transform="translate(676.65235 419.83915) rotate(-180)"
                      fill="#ccc"/>
                <rect x="461.81457" y="334.83915" width="13" height="14"
                      transform="translate(692.65235 423.83915) rotate(-180)"
                      fill="#fff"/>
                <rect x="445.81457" y="334.83915" width="13" height="14"
                      transform="translate(660.65235 423.83915) rotate(-180)"
                      fill="#fff"/>
                <path d="M460.31457,368.33915a19.02161,19.02161,0,0,1-19-19v-.5a4.50508,4.50508,0,0,1,4.5-4.5h29a4.50508,4.50508,0,0,1,4.5,4.5v.5A19.0216,19.0216,0,0,1,460.31457,368.33915Z"
                      transform="translate(-243.9768 -259.83915)" fill="#ccc"/>
                <path d="M475.57849,335.33915H445.05066a2.49992,2.49992,0,0,1-2.23609-3.61816l6-12a2.486,2.486,0,0,1,2.23609-1.38184h18.52783a2.486,2.486,0,0,1,2.23608,1.38184l6,12a2.49992,2.49992,0,0,1-2.23608,3.61816Z"
                      transform="translate(-243.9768 -259.83915)" fill="#00a1ff"/>
                <animateTransform attributeName="transform"
                                  type="rotate"
                                  values="0 215 60;-90 215 60;-180 215 60;-270 215 60;-360 215 60"
                                  dur="10s"
                                  repeatCount="indefinite"
                />
            </g>
            <g>
                <rect x="408.81457" y="420.83915" width="33" height="18"
                      transform="translate(606.65235 599.83915) rotate(-180)"
                      fill="#ccc"/>
                <rect x="426.81457" y="424.83915" width="13" height="14"
                      transform="translate(622.65235 603.83915) rotate(-180)"
                      fill="#fff"/>
                <rect x="410.81457" y="424.83915" width="13" height="14"
                      transform="translate(590.65235 603.83915) rotate(-180)"
                      fill="#fff"/>
                <path d="M425.31457,458.33915a19.02161,19.02161,0,0,1-19-19v-.5a4.50508,4.50508,0,0,1,4.5-4.5h29a4.50508,4.50508,0,0,1,4.5,4.5v.5A19.0216,19.0216,0,0,1,425.31457,458.33915Z"
                      transform="translate(-243.9768 -259.83915)" fill="#ccc"/>
                <path d="M440.57849,425.33915H410.05066a2.49992,2.49992,0,0,1-2.23609-3.61816l6-12a2.486,2.486,0,0,1,2.23609-1.38184h18.52783a2.486,2.486,0,0,1,2.23608,1.38184l6,12a2.49992,2.49992,0,0,1-2.23608,3.61816Z"
                      transform="translate(-243.9768 -259.83915)" fill="#00a1ff"/>
                <animateTransform attributeName="transform"
                                  type="rotate"
                                  values="0 180 150;-90 180 150;-180 180 150;-270 180 150;-360 180 150"
                                  dur="10s"
                                  repeatCount="indefinite"
                />
            </g>
            <g>
                <rect x="445.81457" y="504.83915" width="33" height="18"
                      transform="translate(680.65235 767.83915) rotate(-180)"
                      fill="#ccc"/>
                <rect x="463.81457" y="508.83915" width="13" height="14"
                      transform="translate(696.65235 771.83915) rotate(-180)"
                      fill="#fff"/>
                <rect x="447.81457" y="508.83915" width="13" height="14"
                      transform="translate(664.65235 771.83915) rotate(-180)"
                      fill="#fff"/>
                <path d="M462.31457,542.33915a19.02161,19.02161,0,0,1-19-19v-.5a4.50508,4.50508,0,0,1,4.5-4.5h29a4.50508,4.50508,0,0,1,4.5,4.5v.5A19.0216,19.0216,0,0,1,462.31457,542.33915Z"
                      transform="translate(-243.9768 -259.83915)" fill="#ccc"/>
                <path d="M477.57849,509.33915H447.05066a2.49992,2.49992,0,0,1-2.23609-3.61816l6-12a2.486,2.486,0,0,1,2.23609-1.38184h18.52783a2.486,2.486,0,0,1,2.23608,1.38184l6,12a2.49992,2.49992,0,0,1-2.23608,3.61816Z"
                      transform="translate(-243.9768 -259.83915)" fill="#00a1ff"/>
                <animateTransform attributeName="transform"
                                  type="rotate"
                                  values="0 215 235;-90 215 235;-180 215 235;-270 215 235;-360 215 235"
                                  dur="10s"
                                  repeatCount="indefinite"
                />
            </g>
            <g>
                <rect x="287.83777" y="283" width="33" height="18" fill="#ccc"/>
                <rect x="289.83777" y="287" width="13" height="14" fill="#fff"/>
                <rect x="305.83777" y="287" width="13" height="14" fill="#fff"/>
                <path d="M533.81457,557.33915a3.50409,3.50409,0,0,0-3.5,3.5v.5a18,18,0,0,0,36,0v-.5a3.50409,3.50409,0,0,0-3.5-3.5Z"
                      transform="translate(-243.9768 -259.83915)" fill="#ccc"/>
                <path d="M539.05066,531.33915a1.492,1.492,0,0,0-1.34155.82911l-6,12a1.49982,1.49982,0,0,0,1.34155,2.17089h30.52783a1.49982,1.49982,0,0,0,1.34155-2.17089l-6-12a1.492,1.492,0,0,0-1.34155-.82911Z"
                      transform="translate(-243.9768 -259.83915)" fill="#00a1ff"/>
                <animateTransform attributeName="transform"
                                  type="rotate"
                                  values="0 305 275;-90 305 275;-180 305 275;-270 305 275;-360 305 275"
                                  dur="10s"
                                  repeatCount="indefinite"
                />
            </g>
            <animateTransform attributeName="transform"
                              type="rotate"
                              values="0 305 150;360 305 150"
                              dur="10s"
                              repeatCount="indefinite"
            />
        </g>
        <circle cx="304.83777" cy="149" r="12" fill="#3f3d56"/>
        <polygon points="258.381 351.695 247.838 352 299.295 144.305 308.86 147.223 258.381 351.695" fill="#3f3d56"/>
        <polygon points="351.295 351.695 361.838 352 310.381 144.305 300.816 147.223 351.295 351.695" fill="#3f3d56"/>
        <path d="M773.0232,581.83915a1,1,0,0,0,0-2h-9.5v-4h9.5a1,1,0,0,0,0-2h-81a1,1,0,1,0,0,2h9.5v4h-9.5a1,1,0,1,0,0,2h9.5v4h-9.5a1,1,0,1,0,0,2h9.5v4h-8.5a2,2,0,1,0,0,4H701.115a1.49065,1.49065,0,0,0-.09179.5v14a1.5,1.5,0,0,0,3,0v-14a1.49065,1.49065,0,0,0-.0918-.5H761.115a1.49065,1.49065,0,0,0-.09179.5v14a1.5,1.5,0,0,0,3,0v-14a1.49065,1.49065,0,0,0-.0918-.5h8.0918a2,2,0,0,0,0-4h-8.5v-4h9.5a1,1,0,0,0,0-2h-9.5v-4Zm-69.5-6h58v4h-58Zm58,16h-58v-4h58Zm0-6h-58v-4h58Z"
              transform="translate(-243.9768 -259.83915)" fill="#3f3d56"/>
        <path d="M433.0232,581.83915a1,1,0,0,0,0-2h-9.5v-4h9.5a1,1,0,0,0,0-2h-81a1,1,0,0,0,0,2h9.5v4h-9.5a1,1,0,0,0,0,2h9.5v4h-9.5a1,1,0,0,0,0,2h9.5v4h-8.5a2,2,0,0,0,0,4H361.115a1.49065,1.49065,0,0,0-.09179.5v14a1.5,1.5,0,0,0,3,0v-14a1.49065,1.49065,0,0,0-.0918-.5H421.115a1.49065,1.49065,0,0,0-.09179.5v14a1.5,1.5,0,0,0,3,0v-14a1.49065,1.49065,0,0,0-.0918-.5h8.0918a2,2,0,0,0,0-4h-8.5v-4h9.5a1,1,0,0,0,0-2h-9.5v-4Zm-69.5-6h58v4h-58Zm58,16h-58v-4h58Zm0-6h-58v-4h58Z"
              transform="translate(-243.9768 -259.83915)" fill="#3f3d56"/>
        <path d="M748.0232,576.33915h-3a1.50164,1.50164,0,0,1-1.5-1.5v-3a1.50164,1.50164,0,0,1,1.5-1.5h3a1.50165,1.50165,0,0,1,1.5,1.5v3A1.50164,1.50164,0,0,1,748.0232,576.33915Z"
              transform="translate(-243.9768 -259.83915)" fill="#ccc"/>
        <path d="M746.57715,573.03349a1.00042,1.00042,0,0,1-.98437-.83057l-9.88941-57.54638a1.00005,1.00005,0,0,1,1.97119-.33887l9.88941,57.54639a.99975.99975,0,0,1-.81616,1.15478A.96847.96847,0,0,1,746.57715,573.03349Z"
              transform="translate(-243.9768 -259.83915)" fill="#ccc"/>
        <!--  balloon  -->
        <g>
            <path d="M746.57959,573.03349a.96634.96634,0,0,1-.17065-.01465.99974.99974,0,0,1-.81616-1.15478l9.88964-57.54639a1.00006,1.00006,0,0,1,1.9712.33887L747.564,572.20292A1.00042,1.00042,0,0,1,746.57959,573.03349Z"
                  transform="translate(-243.9768 -259.83915)" fill="#ccc"/>
            <path d="M767.86868,504.4672c.964-6.82917-2.68315-12.99053-8.14673-13.7618s-10.6738,4.13975-11.63784,10.96892c-.81306,5.75966,1.66046,11.03068,5.73088,13.0074l-.23177,1.64182,4.94614.69822.23177-1.64182C763.21967,514.60721,767.05562,510.22686,767.86868,504.4672Z"
                  transform="translate(-243.9768 -259.83915)" fill="#ffdc5d"/>
            <animateTransform attributeName="transform"
                              type="rotate"
                              values="0 502 315;10 502 315;0 502 315"
                              dur="10s"
                              repeatCount="indefinite"
            />
        </g>
        <path d="M744.90186,501.35957c-1.18349-6.79458-6.54917-11.53523-11.98508-10.5884s-8.88276,7.22246-7.69928,14.017c.99814,5.73048,4.97319,9.985,9.4543,10.61375l.28453,1.63351,4.92108-.85716-.28452-1.63351C743.59753,512.438,745.9,507.09006,744.90186,501.35957Z"
              transform="translate(-243.9768 -259.83915)" fill="#ccc"/>
        <path d="M746.5232,571.83915a1,1,0,0,1-1-1V511.68144a1,1,0,1,1,2,0v59.15771A1.00005,1.00005,0,0,1,746.5232,571.83915Z"
              transform="translate(-243.9768 -259.83915)" fill="#ccc"/>
        <path d="M755.89394,500.31825c0-6.89689-4.47262-12.488-9.99036-12.488s-9.99037,5.59107-9.99037,12.488c0,5.81676,3.186,10.69029,7.49277,12.07865V514.055h4.99519V512.3969C752.70793,511.00854,755.89394,506.135,755.89394,500.31825Z"
              transform="translate(-243.9768 -259.83915)" fill="#00a1ff"/>
        <path d="M954.4615,613.37629h-709.294a1.19068,1.19068,0,1,1,0-2.38136h709.294a1.19068,1.19068,0,1,1,0,2.38136Z"
              transform="translate(-243.9768 -259.83915)" fill="#ccc"/>
        <polygon points="553.475 351.407 551.2 351.406 550.118 342.633 553.475 342.633 553.475 351.407" fill="#a0616a"/>
        <path d="M549.25143,350.7566H553.962a0,0,0,0,1,0,0v2.76191a0,0,0,0,1,0,0h-7.14847a0,0,0,0,1,0,0v-.324A2.43788,2.43788,0,0,1,549.25143,350.7566Z"
              fill="#2f2e41"/>
        <polygon points="569.978 348.83 567.909 349.775 563.28 342.245 566.333 340.85 569.978 348.83" fill="#a0616a"/>
        <path d="M810.31458,609.23578h4.71059a0,0,0,0,1,0,0v2.76191a0,0,0,0,1,0,0H807.8767a0,0,0,0,1,0,0v-.324A2.43788,2.43788,0,0,1,810.31458,609.23578Z"
              transform="translate(-424.31874 132.48349) rotate(-24.54855)" fill="#2f2e41"/>
        <path d="M797.3065,608.93242h-2.17287a.838.838,0,0,1-.8327-.77435L793.116,576.51493a.83482.83482,0,0,1,.91377-.89139l12.56661,1.33456a.83511.83511,0,0,1,.75366.81512l.26334,13.95815a.64772.64772,0,0,0,.0434.2214l5.15488,13.36769a.83466.83466,0,0,1-.49036,1.08362l-2.20191.81132a.83507.83507,0,0,1-1.031-.40149l-6.3325-12.31323a.83067.83067,0,0,1-.075-.212l-1.08177-5.21214a.64933.64933,0,0,0-1.28088.058l-2.1822,19.058A.83469.83469,0,0,1,797.3065,608.93242Z"
              transform="translate(-243.9768 -259.83915)" fill="#2f2e41"/>
        <circle cx="554.41167" cy="287.37723" r="4.55672" fill="#a0616a"/>
        <path d="M801.53,579.40233a16.47753,16.47753,0,0,1-8.3293-2.38041h0a.82928.82928,0,0,1-.39275-.76774l1.108-15.83887a6.8665,6.8665,0,0,1,3.13184-5.31577,6.61029,6.61029,0,0,1,5.89885-.703,4.6552,4.6552,0,0,1,1.1998.62162,7.921,7.921,0,0,1,3.2459,7.55323c-.81263,6.163.10794,14.4765.21556,15.40413l.00779.06686-.06115.02808A14.29346,14.29346,0,0,1,801.53,579.40233Z"
              transform="translate(-243.9768 -259.83915)" fill="#00a1ff"/>
        <path d="M807.33123,581.66479a1.86556,1.86556,0,0,0,.14863-2.85683l2.67373-6.0667-3.39673.57565-2.01827,5.67279a1.87572,1.87572,0,0,0,2.59264,2.67509Z"
              transform="translate(-243.9768 -259.83915)" fill="#a0616a"/>
        <path d="M807.587,577.91725a.83226.83226,0,0,1-.61447-.27086l-.99675-1.08743a.83906.83906,0,0,1-.18521-.80063l2.28289-7.7267L804.6,560.73739a1.546,1.546,0,0,1-.10567-1.02891,1.54159,1.54159,0,0,1,2.85478-.36471l4.69555,7.61909a2.12444,2.12444,0,0,1,.128,1.99078l-3.82368,8.47208a.83275.83275,0,0,1-.62887.48084A.84686.84686,0,0,1,807.587,577.91725Z"
              transform="translate(-243.9768 -259.83915)" fill="#00a1ff"/>
        <path d="M802.14282,551.23369c-.47251.081-.86133-.5767-.92013-1.03934a8.139,8.139,0,0,1,.1282-1.36513,1.11959,1.11959,0,0,0-.67572-1.15447c-.50045-.14288-.96436.25856-1.47667.21029-.71389-.06727-1.07231-.90272-1.15879-1.57856s-.15443-1.47619-.77269-1.86159c-.61634-.38422-1.3788-.10467-2.087-.09271a2.85054,2.85054,0,0,1-2.69513-2.019.67893.67893,0,0,0,.77447-.31016.68713.68713,0,0,0-.20675-.81228l1.35679.66438a.72885.72885,0,0,1,.48008-.95016,2.56284,2.56284,0,0,1,1.25928-.01265c2.12436.33005,4.58494.16738,5.99407,1.78712a7.50666,7.50666,0,0,1,1.66974,4.63817A12.87378,12.87378,0,0,1,802.14282,551.23369Z"
              transform="translate(-243.9768 -259.83915)" fill="#2f2e41"/>
        <g>
            <path d="M777.98114,559.00176a1.86562,1.86562,0,0,1,2.6814.99684l6.62958-.04777-1.87587,2.88969-6.008-.39766a1.87572,1.87572,0,0,1-1.42714-3.4411Z"
                  transform="translate(-243.9768 -259.83915)" fill="#a0616a"/>
            <path d="M781.43079,562.15135a.83229.83229,0,0,1,.13988-.65678l.86134-1.19755a.839.839,0,0,1,.746-.34457l7.75489-.3249,6.70769-3.90356a1.546,1.546,0,0,1,.98574-.31326,1.54159,1.54159,0,0,1,.93917,2.72043l-6.50155,6.1505a2.12446,2.12446,0,0,1-1.92286.53121l-9.07376-2.01581a.83275.83275,0,0,1-.599-.51761A.84875.84875,0,0,1,781.43079,562.15135Z"
                  transform="translate(-243.9768 -259.83915)" fill="#00a1ff"/>
            <animateTransform attributeName="transform"
                              type="rotate"
                              values="0 550 300;0 550 300;0 550 300;60 550 300;0 550 300"
                              dur="10s"
                              repeatCount="indefinite"
            />
        </g>
        <path d="M667.42979,607.50944a1.92091,1.92091,0,0,0-1.4958-2.53735l-1.15177-6.72826-2.58933,2.42448,1.49071,6.01757a1.93128,1.93128,0,0,0,3.74619.82356Z"
              transform="translate(-243.9768 -259.83915)" fill="#ffb8b8"/>
        <path d="M665.70933,604.29038l-2.54211.66712a.47953.47953,0,0,1-.58075-.332l-4.56819-16.18538-1.38015-4.12893a2.48689,2.48689,0,0,1,2.65657-3.25742h0a2.48517,2.48517,0,0,1,2.08675,1.7632l3.65035,12.3387,1.03051,8.61611a.47963.47963,0,0,1-.25112.4789A.47038.47038,0,0,1,665.70933,604.29038Z"
              transform="translate(-243.9768 -259.83915)" fill="#00a1ff"/>
        <circle cx="412.44205" cy="313.79281" r="4.69169" fill="#ffb8b8"/>
        <polygon points="398.628 377.976 396.383 377.308 397.891 368.332 401.204 369.318 398.628 377.976"
                 fill="#ffb8b8"/>
        <path d="M642.52992,640.16085l-7.23761-2.15347.02723-.09155a2.93908,2.93908,0,0,1,3.65521-1.979l.00018,0,4.42046,1.31528Z"
              transform="translate(-243.9768 -259.83915)" fill="#2f2e41"/>
        <polygon points="423.22 377.861 420.878 377.86 419.764 368.827 422.074 368.828 423.22 377.861" fill="#ffb8b8"/>
        <path d="M667.79388,639.96982l-7.55119-.00028V639.874a2.93907,2.93907,0,0,1,2.93915-2.9391h.00019l4.612.00019Z"
              transform="translate(-243.9768 -259.83915)" fill="#2f2e41"/>
        <path d="M643.46832,635.159h-2.35139a.85977.85977,0,0,1-.84547-1.015c-1.49944-.667,6.57421-39.38581,8.48181-38.63525l.06277-.09047,9.60593.78386c4.30256,8.61113,7.02621,22.86015,9.57459,37.73517a.85953.85953,0,0,1-.79146,1.07l-2.64194.12816a.85554.85554,0,0,1-.83982-.5393L653.60129,609.292a.27371.27371,0,0,0-.27259-.18.28091.28091,0,0,0-.26406.19232l-8.78433,25.27736A.86036.86036,0,0,1,643.46832,635.159Z"
              transform="translate(-243.9768 -259.83915)" fill="#2f2e41"/>
        <path d="M658.62316,596.95988l-.0734-.00541-10.22741-.77192,1.794-11.40963a5.97381,5.97381,0,0,1,5.10442-5.0076h0q.11787-.01651.23733-.03227a5.90271,5.90271,0,0,1,5.365,2.14712,5.977,5.977,0,0,1,1.02283,5.76293Z"
              transform="translate(-243.9768 -259.83915)" fill="#00a1ff"/>
        <path d="M665.52923,578.99862c-3.2261,1.47578-7.60328,1.21172-12.60743,0,.69247-1.89675,1.23212-3.72882.62-5.07366a4.09607,4.09607,0,0,1-.13439-3.27856,6.30555,6.30555,0,0,1,5.81807-3.87317h0a6.30371,6.30371,0,0,1,6.30371,6.30371Z"
              transform="translate(-243.9768 -259.83915)" fill="#2f2e41"/>
        <path d="M411.20374,307.363h3.47191a0,0,0,0,1,0,0v4.93305a0,0,0,0,1,0,0h-8.405a0,0,0,0,1,0,0v0A4.933,4.933,0,0,1,411.20374,307.363Z"
              fill="#2f2e41"/>
        <path d="M648.10123,608.57065a1.92084,1.92084,0,0,0-.13231-2.94245l2.13559-6.48346-3.42358.92833-1.50312,6.01449a1.93128,1.93128,0,0,0,2.92342,2.48309Z"
              transform="translate(-243.9768 -259.83915)" fill="#ffb8b8"/>
        <path d="M648.08993,604.9207l-2.55831-.602a.47954.47954,0,0,1-.35747-.56541l3.54943-16.43888.71573-4.29425a2.48688,2.48688,0,0,1,3.87331-1.63264h0a2.48516,2.48516,0,0,1,1.01714,2.53551l-2.55757,12.61061-3.12742,8.09435a.47963.47963,0,0,1-.44627.30538A.47045.47045,0,0,1,648.08993,604.9207Z"
              transform="translate(-243.9768 -259.83915)" fill="#00a1ff"/>
        <path d="M727.15562,569.19284a1.941,1.941,0,0,0-.28924.099L719.18,564.33334l.106-2.21959-3.32884-.59784-.56957,3.91111a1.47552,1.47552,0,0,0,.84737,1.55491l9.46662,4.32147a1.93607,1.93607,0,1,0,1.454-2.11056Z"
              transform="translate(-243.9768 -259.83915)" fill="#ffb8b8"/>
        <g>
            <path d="M718.86644,564.19668l-4.12219-.761a.83.83,0,0,1-.63463-1.08479l1.35277-3.95415a2.305,2.305,0,0,1,4.53093.85019l-.14676,4.163a.83.83,0,0,1-.98012.7867Z"
                  transform="translate(-243.9768 -259.83915)" fill="#3f3d56"/>
            <path d="M733.20052,553.47163a1.94129,1.94129,0,0,0-.04413.3025l-7.923,4.57077-1.9258-1.10866-2.053,2.6877,3.21852,2.294a1.47551,1.47551,0,0,0,1.77028-.04313l8.17-6.44538a1.93607,1.93607,0,1,0-1.21282-2.25777Z"
                  transform="translate(-243.9768 -259.83915)" fill="#ffb8b8"/>
            <animateTransform attributeName="transform"
                              type="rotate"
                              values="0 475 300;-30 475 300;0 475 300;0 475 300;0 475 300"
                              dur="10s"
                              repeatCount="indefinite"
            />
        </g>
        <path d="M724.96848,558.56138l-2.56071,3.31879a.83.83,0,0,1-1.2549.06874l-2.89889-3.01027a2.305,2.305,0,0,1,2.82683-3.64159l3.63584,2.033a.83.83,0,0,1,.25183,1.2313Z"
              transform="translate(-243.9768 -259.83915)" fill="#ccc"/>
        <circle cx="470.50539" cy="286.26798" r="4.53001" fill="#ffb8b8"/>
        <polygon points="474.782 351.13 477.043 351.13 478.118 342.408 474.781 342.408 474.782 351.13" fill="#ffb8b8"/>
        <path d="M718.18153,610.23071l4.45306-.00018h.00018a2.83779,2.83779,0,0,1,2.83786,2.83783v.09222l-7.291.00027Z"
              transform="translate(-243.9768 -259.83915)" fill="#2f2e41"/>
        <polygon points="467.035 351.13 469.296 351.13 470.372 342.408 467.035 342.408 467.035 351.13" fill="#ffb8b8"/>
        <path d="M710.43509,610.23071l4.45306-.00018h.00018a2.83779,2.83779,0,0,1,2.83786,2.83783v.09222l-7.291.00027Z"
              transform="translate(-243.9768 -259.83915)" fill="#2f2e41"/>
        <path d="M718.07984,607.65886l-2.30648-17.84519a.09074.09074,0,0,0-.09335-.0861.08767.08767,0,0,0-.09082.0888l-.66283,17.58619a.82743.82743,0,0,1-.82943.79881h-2.73885a.82515.82515,0,0,1-.82971-.81l-.711-29.301,12.2571.12248.306,29.39515a.83061.83061,0,0,1-.29111.6124.8186.8186,0,0,1-.638.19182l-2.656.00739A.83075.83075,0,0,1,718.07984,607.65886Z"
              transform="translate(-243.9768 -259.83915)" fill="#2f2e41"/>
        <path d="M709.63581,578.89177a.82942.82942,0,0,1-.52378-.65112l-.12234-16.10329c-.5417-3.5854-1.18242-7.09874,1.95241-8.9154l.27621-.82871a.463.463,0,0,1,.42426-.3152l5.94681-.16985a.45719.45719,0,0,1,.437.27918l.44232,1.03224.15707.08952a8.74469,8.74469,0,0,1,4.35246,8.63351l-.34,2.8707-.24154,13.41578a.83716.83716,0,0,1-.43566.71686,11.28393,11.28393,0,0,1-5.45252,1.26946A20.42683,20.42683,0,0,1,709.63581,578.89177Z"
              transform="translate(-243.9768 -259.83915)" fill="#ccc"/>
        <path d="M714.33469,550.805a4.83323,4.83323,0,1,1,.90563-9.55861,5.55572,5.55572,0,0,1,3.31525-.90836,3.24956,3.24956,0,0,1,2.743,1.87428,2.32054,2.32054,0,0,1-1.11163,2.94684,4.192,4.192,0,0,1-2.2119.0315,3.29833,3.29833,0,0,0-2.18677.19325c-.64271.381-.93162,1.40274-.356,1.87913a1.98057,1.98057,0,0,1,.56885,2.18011A2.16655,2.16655,0,0,1,714.33469,550.805Z"
              transform="translate(-243.9768 -259.83915)" fill="#2f2e41"/>
        <polygon points="207.665 377.775 209.869 377.775 210.917 369.275 207.664 369.275 207.665 377.775"
                 fill="#ffb8b8"/>
        <path d="M450.66968,640.16085l-.00024-3.67579,4.75-.00048a3.17962,3.17962,0,0,1,3.176,3.17578v.5Z"
              transform="translate(-243.9768 -259.83915)" fill="#2f2e41"/>
        <polygon points="195.787 377.775 197.99 377.775 199.038 369.275 195.786 369.275 195.787 377.775"
                 fill="#ffb8b8"/>
        <path d="M438.79151,640.16085l-.00025-3.67579,4.75-.00048a3.17963,3.17963,0,0,1,3.176,3.17578v.5Z"
              transform="translate(-243.9768 -259.83915)" fill="#2f2e41"/>
        <circle cx="202.24055" cy="312.61485" r="4.73443" fill="#ffb8b8"/>
        <path d="M462.406,603.33022a1.80751,1.80751,0,0,0-2.33093-1.49955l-2.6459-3.17179-2.31965,1.1378,3.79943,4.4267a1.81732,1.81732,0,0,0,3.49705-.89316Z"
              transform="translate(-243.9768 -259.83915)" fill="#ffb8b8"/>
        <path d="M439.63431,606.53809a1.80753,1.80753,0,0,0-1.16257-2.516l-.53121-4.0962-2.568-.28431.83142,5.77409a1.81732,1.81732,0,0,0,3.43034,1.12243Z"
              transform="translate(-243.9768 -259.83915)" fill="#ffb8b8"/>
        <path d="M442.26073,581.39635h0a2.32927,2.32927,0,0,0-3.99983.56485l-3.88056,9.6844a6.01634,6.01634,0,0,0-.3664,3.12153l1.264,8.51206a.77105.77105,0,0,0,.989.62382l1.66531-.51139a.77106.77106,0,0,0,.53946-.8269v0a28.00923,28.00923,0,0,1,2.24834-14.69451l1.8294-4.092A2.3293,2.3293,0,0,0,442.26073,581.39635Z"
              transform="translate(-243.9768 -259.83915)" fill="#ccc"/>
        <path d="M445.0646,577.18824a5.05132,5.05132,0,1,1,.9465-9.98994,5.80647,5.80647,0,0,1,3.46485-.94935,3.39619,3.39619,0,0,1,2.86674,1.95886,2.42524,2.42524,0,0,1-1.16179,3.07981,4.38115,4.38115,0,0,1-2.31171.03293,3.44713,3.44713,0,0,0-2.28545.202c-.6717.39823-.97365,1.466-.37208,1.96393a2.07,2.07,0,0,1,.59452,2.27849A2.26431,2.26431,0,0,1,445.0646,577.18824Z"
              transform="translate(-243.9768 -259.83915)" fill="#2f2e41"/>
        <path d="M439.19059,603.143l-.83982,31.87117a.771.771,0,0,0,.81007.79036l2.76654-.14115a.771.771,0,0,0,.7222-.649l3.29066-20.70051a.38552.38552,0,0,1,.757-.02356l4.45426,19.93092a.771.771,0,0,0,1.01079.55832l2.74565-.1677a.771.771,0,0,0,.5108-.78127l-2.3968-30.9892Z"
              transform="translate(-243.9768 -259.83915)" fill="#2f2e41"/>
        <path d="M437.84282,588.0053a8.68786,8.68786,0,0,1,7.92759-9.54184c2.08524-.14807,5.32257-.201,6.38975,2.53221,3.21476,8.23358-2.413,8.03351-.474,15.16706s3.65148,7.54238.991,8.05751-14.6242,3.55588-14.13294-1.465C438.84624,599.669,438.30486,592.823,437.84282,588.0053Z"
              transform="translate(-243.9768 -259.83915)" fill="#ccc"/>
        <path d="M451.59088,580.15819h0a2.32926,2.32926,0,0,0-3.14084,2.54024l1.51108,9.44359a9.22856,9.22856,0,0,0,1.97873,4.39627l4.90762,5.98027a.771.771,0,0,0,1.169.02683l1.16572-1.29457a.77105.77105,0,0,0,.03777-.98658l-.34333-.44555a25.96568,25.96568,0,0,1-5.21317-12.7568l-.60073-5.00886A2.32929,2.32929,0,0,0,451.59088,580.15819Z"
              transform="translate(-243.9768 -259.83915)" fill="#ccc"/>
        <path d="M462.63165,605.52468a1.85669,1.85669,0,0,0,.66394-2.76846l1.38833-13.574h-3.00033l-1.10334,13.25433a1.86672,1.86672,0,0,0,2.0514,3.08815Z"
              transform="translate(-243.9768 -259.83915)" fill="#a0616a"/>
        <circle cx="221.40969" cy="317.60698" r="4.24487" fill="#a0616a"/>
        <path d="M466.18563,597.08728a.77631.77631,0,0,1-.74819-.57013,42.9271,42.9271,0,0,0-2.62983-6.20971,5.14371,5.14371,0,0,1,2.921-7.10161h0a5.1414,5.1414,0,0,1,6.60672,3.27523,25.44294,25.44294,0,0,1,.96321,8.48484.77962.77962,0,0,1-.61076.71984l-6.33532,1.38348A.774.774,0,0,1,466.18563,597.08728Z"
              transform="translate(-243.9768 -259.83915)" fill="#00a1ff"/>
        <polygon points="228.344 377.557 230.463 377.557 231.471 369.384 228.343 369.384 228.344 377.557"
                 fill="#a0616a"/>
        <path d="M479.02588,639.86348H471.3667l-.00024-3.57275h4.5874a3.072,3.072,0,0,1,3.072,3.07275Z"
              transform="translate(-243.9768 -259.83915)" fill="#2f2e41"/>
        <polygon points="207.156 374.811 209.013 375.832 213.834 369.156 211.094 367.649 207.156 374.811"
                 fill="#a0616a"/>
        <path d="M455.82032,640.04268l-6.71167-3.68994,1.72119-3.13135,4.019,2.21a3.07268,3.07268,0,0,1,1.2124,4.17286Z"
              transform="translate(-243.9768 -259.83915)" fill="#2f2e41"/>
        <path d="M472.22166,632.85975a.77763.77763,0,0,1-.77051-.67765l-2.64987-20.41951a.43208.43208,0,0,0-.80685-.15309l-11.04356,20.03622a.782.782,0,0,1-.95795.35157l-2.40716-.91714a.77768.77768,0,0,1-.44347-1.01993l7.65015-18.793a.59917.59917,0,0,0,.03907-.14886c1.03618-8.01986,3.67254-12.09822,4.45584-13.15714a.60226.60226,0,0,0,.0857-.54836l-.10768-.323a.77733.77733,0,0,1,.14966-.75646c2.82253-3.2149,7.74209-1.46061,7.79146-1.44255l.02464.00911.01544.0211c5.51628,7.56516,3.47672,32.13664,3.01186,36.98548a.7756.7756,0,0,1-.71448.69992l-3.2619.25114C472.26179,632.85907,472.24167,632.85975,472.22166,632.85975Z"
              transform="translate(-243.9768 -259.83915)" fill="#2f2e41"/>
        <path d="M481.88894,582.377a1.81834,1.81834,0,0,0-.04136.28346l-7.42431,4.28306-1.80458-1.03887-1.92379,2.51852,3.01593,2.14957a1.38265,1.38265,0,0,0,1.65885-.04041l7.65573-6.03967a1.81421,1.81421,0,1,0-1.13647-2.11566Z"
              transform="translate(-243.9768 -259.83915)" fill="#a0616a"/>
        <path d="M474.17507,587.14637l-2.39952,3.10988a.77775.77775,0,0,1-1.17592.06441l-2.71641-2.82079a2.15992,2.15992,0,0,1,2.64889-3.41236l3.407,1.90506a.77774.77774,0,0,1,.236,1.1538Z"
              transform="translate(-243.9768 -259.83915)" fill="#00a1ff"/>
        <path d="M464.87487,592.54939l-3.86547-.698a.77773.77773,0,0,1-.59865-1.01417l1.25311-3.71018a2.15992,2.15992,0,0,1,4.24881.78006l-.12226,3.90151a.77774.77774,0,0,1-.91554.74076Z"
              transform="translate(-243.9768 -259.83915)" fill="#00a1ff"/>
        <path d="M466.05835,576.46976c1.091.74671,2.52356,1.51429,3.63787.7191a2.02776,2.02776,0,0,0,.6655-2.33749c-.53357-1.52584-1.99954-2.19758-3.40137-2.71249a9.76789,9.76789,0,0,0-5.688-.72252c-1.88132.47938-3.544,2.30086-3.20436,4.21236.27311,1.53718,1.72311,2.81624,1.51727,4.36387-.20717,1.55756-1.95882,2.37742-3.50524,2.65579s-3.27691.36782-4.38827,1.47859c-1.41773,1.417-1.0637,3.94971.27033,5.44578A9.93836,9.93836,0,0,0,457.26,592.208c2.58458.61082,5.38.93183,7.83471-.08188s4.36492-3.7425,3.65383-6.30132a8.79123,8.79123,0,0,0-1.69174-2.88357,8.036,8.036,0,0,1-1.63711-2.91025,3.02544,3.02544,0,0,1,.54646-2.64685.76686.76686,0,0,0,.10273-.89637Z"
              transform="translate(-243.9768 -259.83915)" fill="#2f2e41"/>
        <animate attributeName="opacity"
                 values="0;0;1;1;0;0"
                 keyTimes="0 ; 0.49 ; 0.5 ; 0.97 ;0.98; 1"
                 dur="30s"
                 repeatCount="indefinite"/>
    </g>
    <!--  fireworks  -->
    <g transform="scale(0.5 0.5) translate(-140 50)">
        <!--  1  -->
        <g>
            <path d="M271.93,151.23a.59.59,0,0,1-.31.09c-.19,0-.33-.19-.41-.37-.44-.95-.19-2.19-.86-3a10.08,10.08,0,0,0-1.64,2.75l-2.58-.8a3.87,3.87,0,0,0,.49,3,4,4,0,0,0-1.21.83,1.33,1.33,0,0,0-.32,1.36,6.19,6.19,0,0,0,1.82.18,12,12,0,0,0,.19,3.39.67.67,0,0,0,.22.43c.19.12.44,0,.63-.11a5.92,5.92,0,0,0,2.12-2.24l1,2.29a1.08,1.08,0,0,0,.43.57.68.68,0,0,0,.8-.28,2,2,0,0,0,.29-.87l.36-2.18a.45.45,0,0,1,.12-.3.49.49,0,0,1,.38-.11c.91,0,1.82,0,2.72,0,.16-.48-.32-.93-.79-1.14s-1-.36-1.25-.81c-.47-.92.76-2.2.23-3S272.72,150.84,271.93,151.23Z"
                  transform="translate(-57 -44.32)" fill="#00a1ff" opacity="0.5"/>
            <path d="M247,121.63a.55.55,0,0,1-.3.09c-.2,0-.33-.19-.41-.37-.44-.95-.19-2.19-.87-3a10.33,10.33,0,0,0-1.64,2.75l-2.57-.8a3.83,3.83,0,0,0,.48,3,4.2,4.2,0,0,0-1.21.83,1.33,1.33,0,0,0-.32,1.36,6.22,6.22,0,0,0,1.82.18,12,12,0,0,0,.2,3.39.62.62,0,0,0,.22.43c.19.12.44,0,.63-.11a5.92,5.92,0,0,0,2.12-2.24l1,2.29a1,1,0,0,0,.42.57.7.7,0,0,0,.81-.28,2,2,0,0,0,.28-.87l.36-2.18a.51.51,0,0,1,.12-.3.52.52,0,0,1,.38-.11q1.36,0,2.73,0c.15-.48-.33-.93-.79-1.14s-1-.36-1.25-.81c-.48-.92.75-2.2.23-3S247.8,121.24,247,121.63Z"
                  transform="translate(-57 -44.32)" fill="#00a1ff" opacity="0.5"/>
            <path d="M354.06,128.6a.58.58,0,0,1-.3.09c-.2,0-.33-.19-.42-.37-.43-.95-.18-2.19-.86-3a10.33,10.33,0,0,0-1.64,2.75l-2.57-.8a3.83,3.83,0,0,0,.48,2.95,3.78,3.78,0,0,0-1.21.83,1.33,1.33,0,0,0-.32,1.36,6.58,6.58,0,0,0,1.82.18,12,12,0,0,0,.2,3.39.62.62,0,0,0,.22.43c.19.12.44,0,.63-.11a6.08,6.08,0,0,0,2.12-2.24l1,2.28a1,1,0,0,0,.42.58.7.7,0,0,0,.81-.28,2,2,0,0,0,.28-.87l.36-2.18a.56.56,0,0,1,.12-.31.53.53,0,0,1,.38-.1q1.36,0,2.73,0c.15-.48-.33-.93-.79-1.14s-1-.36-1.25-.81c-.48-.92.75-2.2.23-3S354.86,128.21,354.06,128.6Z"
                  transform="translate(-57 -44.32)" fill="#00a1ff" opacity="0.5"/>
            <path d="M302.11,122.78a.55.55,0,0,1-.3.09c-.2,0-.33-.2-.41-.37-.44-1-.19-2.19-.87-3a10.66,10.66,0,0,0-1.64,2.75l-2.57-.8a3.85,3.85,0,0,0,.48,3,4,4,0,0,0-1.21.82,1.35,1.35,0,0,0-.32,1.37,7,7,0,0,0,1.82.18,12,12,0,0,0,.2,3.38.58.58,0,0,0,.22.43c.19.13.44,0,.63-.1a6,6,0,0,0,2.12-2.25l1,2.29a1,1,0,0,0,.42.57.68.68,0,0,0,.81-.27,2,2,0,0,0,.28-.87l.36-2.18a.56.56,0,0,1,.12-.31.63.63,0,0,1,.38-.11q1.37,0,2.73,0c.15-.48-.33-.93-.79-1.13s-1-.36-1.25-.81c-.48-.92.75-2.2.23-3S302.91,122.39,302.11,122.78Z"
                  transform="translate(-57 -44.32)" fill="#00a1ff" opacity="0.2"/>
            <path d="M285.81,129.87a.58.58,0,0,1-.3.09c-.2,0-.33-.19-.42-.37-.44-1-.18-2.19-.86-3a10.66,10.66,0,0,0-1.64,2.75l-2.58-.79a3.87,3.87,0,0,0,.49,2.95,3.92,3.92,0,0,0-1.21.82,1.35,1.35,0,0,0-.32,1.37,7,7,0,0,0,1.82.18,12.07,12.07,0,0,0,.2,3.39.62.62,0,0,0,.22.43c.19.12.44,0,.63-.11a6,6,0,0,0,2.12-2.25l1,2.29a1,1,0,0,0,.42.58.7.7,0,0,0,.81-.28,2,2,0,0,0,.28-.87l.36-2.18a.56.56,0,0,1,.12-.31.59.59,0,0,1,.38-.11c.91,0,1.82,0,2.73,0,.15-.49-.33-.94-.79-1.14s-1-.36-1.25-.81c-.48-.92.75-2.2.23-3S286.61,129.48,285.81,129.87Z"
                  transform="translate(-57 -44.32)" fill="#00a1ff" opacity="0.3"/>
            <path d="M270.62,87a.59.59,0,0,1-.31.09c-.19,0-.33-.19-.41-.37-.44-1-.19-2.19-.86-3a10.18,10.18,0,0,0-1.64,2.74l-2.58-.79a3.79,3.79,0,0,0,.49,3,4.09,4.09,0,0,0-1.22.82,1.37,1.37,0,0,0-.31,1.37,6.55,6.55,0,0,0,1.82.18,12.07,12.07,0,0,0,.19,3.39.62.62,0,0,0,.22.43c.19.12.44,0,.63-.11a5.88,5.88,0,0,0,2.12-2.25l1,2.29a1.07,1.07,0,0,0,.43.58A.68.68,0,0,0,271,95a2,2,0,0,0,.29-.87l.35-2.18a.56.56,0,0,1,.12-.31.63.63,0,0,1,.38-.11c.91,0,1.82,0,2.73,0,.16-.49-.32-.94-.79-1.14s-1-.36-1.25-.81c-.47-.92.75-2.2.23-3S271.41,86.56,270.62,87Z"
                  transform="translate(-57 -44.32)" fill="#00a1ff" opacity="0.2"/>
            <path d="M300.55,143a.69.69,0,0,1-.31.09c-.19,0-.33-.2-.41-.38-.44-.95-.19-2.18-.86-3a10.23,10.23,0,0,0-1.64,2.75l-2.58-.8a3.81,3.81,0,0,0,.49,3,3.91,3.91,0,0,0-1.22.82,1.36,1.36,0,0,0-.31,1.36,6.55,6.55,0,0,0,1.82.19,12,12,0,0,0,.19,3.38.67.67,0,0,0,.22.43.62.62,0,0,0,.63-.1,6,6,0,0,0,2.12-2.25l1,2.29a1,1,0,0,0,.43.57.69.69,0,0,0,.8-.27,2,2,0,0,0,.29-.87l.36-2.18a.41.41,0,0,1,.5-.42c.91,0,1.81,0,2.72,0,.16-.48-.32-.93-.79-1.13s-1-.36-1.25-.81c-.47-.92.75-2.2.23-3S301.34,142.56,300.55,143Z"
                  transform="translate(-57 -44.32)" fill="#00a1ff" opacity="0.3"/>
            <animate attributeName="opacity"
                     values="0;1;1;0;0"
                     keyTimes="0 ; 0.05 ;0.7;0.75;  1"
                     dur="5s"
                     repeatCount="indefinite"/>
        </g>
        <!--  2  -->
        <g>
            <path d="M209,140.68c-4.85,2.5-.75,9.35,4.23,7.08,1.3-.6,2.57-1.27,3.79-1.9,14.81-7.68,32-10.51,49-12.69,4.15-.53,8.58-1,12.42.64-10.47-2.95-21.63-3.2-32.41-1.94s-21.27,3.95-31.65,6.8A28.69,28.69,0,0,0,209,140.68Z"
                  transform="translate(-57 -44.32)" fill="#00a1ff"/>
            <path d="M247.71,209.91c-1,4.65,5.63,4.72,6.87.07.32-1.21.58-2.44.83-3.61,3.07-14.23,10.58-28.05,18.36-41.37,1.91-3.27,12.59-12.64,15.74-14.71-7.6,6.32-22.39,20.28-27.43,28.7a216,216,0,0,0-12.78,26.13A27.45,27.45,0,0,0,247.71,209.91Z"
                  transform="translate(-57 -44.32)" fill="#00a1ff"/>
            <path d="M297.74,46.51c-2.38-4.84-9.16-.86-7,4.1.56,1.3,1.19,2.57,1.79,3.78,7.31,14.79,9.82,31.88,11.7,48.69.46,4.12.86,8.52-.82,12.31,3.06-10.35,3.47-21.4,2.41-32.1s-3.55-21.13-6.19-31.46A28.32,28.32,0,0,0,297.74,46.51Z"
                  transform="translate(-57 -44.32)" fill="#00a1ff"/>
            <path d="M375.49,92.3c5-.15,5.67,7.47.66,7.87-1.31.11-2.63.14-3.89.17-15.4.42-29.95,6-43.94,12-3.43,1.47-7,3.12-9,6.27,6.3-7.31,14.6-12.66,23.44-16.6S361,95.5,370.36,93.09A24.17,24.17,0,0,1,375.49,92.3Z"
                  transform="translate(-57 -44.32)" fill="#00a1ff"/>
            <path d="M342.92,215.22c.43,4.74-6.18,4-6.82-.79-.17-1.24-.27-2.49-.38-3.68-1.26-14.51-7-29.16-13-43.35-1.49-3.48-10.91-14.12-13.78-16.56,6.75,7.22,19.67,22.92,23.62,31.91a215.82,215.82,0,0,1,9.41,27.52A27.11,27.11,0,0,1,342.92,215.22Z"
                  transform="translate(-57 -44.32)" fill="#00a1ff"/>
            <path d="M231.33,92.3c-5-.15-5.66,7.47-.66,7.87,1.31.11,2.64.14,3.9.17,15.39.42,29.95,6,43.94,12,3.43,1.47,7,3.12,9,6.27-6.31-7.31-14.61-12.66-23.44-16.6s-18.24-6.52-27.64-8.93A24.17,24.17,0,0,0,231.33,92.3Z"
                  transform="translate(-57 -44.32)" fill="#00a1ff"/>
            <path d="M397.83,140.68c4.85,2.5.75,9.35-4.23,7.08-1.3-.6-2.58-1.27-3.79-1.9-14.82-7.68-32-10.51-49-12.69-4.15-.53-8.58-1-12.42.64,10.47-2.95,21.62-3.2,32.41-1.94s21.26,3.95,31.65,6.8A29,29,0,0,1,397.83,140.68Z"
                  transform="translate(-57 -44.32)" fill="#00a1ff"/>
            <animate attributeName="opacity"
                     values="0;0;1;1;0;0"
                     keyTimes="0 ; 0.05 ;0.1;0.8;0.85;  1"
                     dur="5s"
                     repeatCount="indefinite"/>
        </g>
        <!--  3  -->
        <g>
            <path d="M279.68,71.14c-2.42-3.29-7.42.28-5.16,3.69.59.89,1.24,1.75,1.85,2.58,7.45,10,11.31,22.27,14.64,34.35.81,3,1.6,6.12.67,9,1.33-7.84.47-15.94-1.54-23.64S285,82.11,281.77,74.84A20.26,20.26,0,0,0,279.68,71.14Z"
                  transform="translate(-57 -44.32)" fill="#00a1ff" opacity="0.5"/>
            <path d="M297.68,194.91c.9,3.05,5.1,1.23,4.33-1.87-.2-.81-.45-1.61-.68-2.37-2.79-9.31-2.66-19.61-2.2-29.68.12-2.48.29-5.1,1.58-7.21a52.71,52.71,0,0,0-4.26,18.77,130.32,130.32,0,0,0,.65,19.07A16.81,16.81,0,0,0,297.68,194.91Z"
                  transform="translate(-57 -44.32)" fill="#00a1ff" opacity="0.5"/>
            <path d="M222.85,167.35c-3.48,3.25,2,7.09,5.61,4,1-.81,1.87-1.67,2.74-2.49,10.62-10,24.65-17.06,38.62-23.6,3.43-1.61,17.55-3.24,21.31-3.15-9.84.88-29.94,4-38.88,8a215.31,215.31,0,0,0-25.36,14.24A26.63,26.63,0,0,0,222.85,167.35Z"
                  transform="translate(-57 -44.32)" fill="#00a1ff" opacity="0.5"/>
            <path d="M327.15,71.14c2.42-3.29,7.42.28,5.16,3.69-.59.89-1.24,1.75-1.85,2.58-7.45,10-11.32,22.27-14.64,34.35-.82,3-1.61,6.12-.68,9-1.33-7.84-.46-15.94,1.55-23.64s5.14-15.06,8.37-22.33A20.26,20.26,0,0,1,327.15,71.14Z"
                  transform="translate(-57 -44.32)" fill="#00a1ff" opacity="0.5"/>
            <path d="M374.11,111c3.17.12,2.46,4.63-.74,4.66-.83,0-1.67,0-2.47-.07-9.71-.39-19.65,2.29-29.29,5.24-2.37.72-4.87,1.54-6.59,3.31a52.82,52.82,0,0,1,17.12-8.79,132.32,132.32,0,0,1,18.64-4.1A16.87,16.87,0,0,1,374.11,111Z"
                  transform="translate(-57 -44.32)" fill="#00a1ff" opacity="0.5"/>
            <path d="M367.1,188.11c1.49,2.53-2.17,2.35-3.78-.18-.43-.66-.81-1.32-1.19-2-4.54-7.73-11.46-15.38-18.42-22.77a25.54,25.54,0,0,0-5.72-4.93,90.12,90.12,0,0,1,15,12.8c4.47,4.68,8.42,9.55,12.29,14.42A23.47,23.47,0,0,1,367.1,188.11Z"
                  transform="translate(-57 -44.32)" fill="#00a1ff" opacity="0.5"/>
            <path d="M384,167.35c3.48,3.25-2,7.09-5.61,4-1-.81-1.87-1.67-2.74-2.49C365,158.85,351,151.76,337,145.22c-3.43-1.61-17.55-3.24-21.32-3.15,9.85.88,29.95,4,38.89,8a215.31,215.31,0,0,1,25.36,14.24A26.63,26.63,0,0,1,384,167.35Z"
                  transform="translate(-57 -44.32)" fill="#00a1ff" opacity="0.5"/>
            <animate attributeName="opacity"
                     values="0;0;1;1;0;0"
                     keyTimes="0 ; 0.1 ;0.15;0.85;0.9;  1"
                     dur="5s"
                     repeatCount="indefinite"/>
        </g>
        <!--  4  -->
        <g>
            <path d="M232.72,111c-3.18.12-2.46,4.63.74,4.66.83,0,1.67,0,2.46-.07,9.71-.39,19.66,2.29,29.3,5.24,2.37.72,4.87,1.54,6.59,3.31a52.82,52.82,0,0,0-17.12-8.79,132.63,132.63,0,0,0-18.64-4.1A16.87,16.87,0,0,0,232.72,111Z"
                  transform="translate(-57 -44.32)" fill="#00a1ff" opacity="0.2"/>
            <path d="M238.5,66.91c-1.91-.33-2.05,2.45-.15,2.88.5.11,1,.19,1.48.27,5.85,1,11.45,3.86,16.84,6.85a9.1,9.1,0,0,1,3.51,2.82,32.22,32.22,0,0,0-9.11-7.43,78.86,78.86,0,0,0-10.61-4.81A10.06,10.06,0,0,0,238.5,66.91Z"
                  transform="translate(-57 -44.32)" fill="#00a1ff" opacity="0.2"/>
            <path d="M368.32,66.91c1.92-.33,2.06,2.45.16,2.88-.5.11-1,.19-1.49.27-5.85,1-11.44,3.86-16.83,6.85a9.1,9.1,0,0,0-3.51,2.82,32.09,32.09,0,0,1,9.11-7.43,78.74,78.74,0,0,1,10.6-4.81A10.48,10.48,0,0,1,368.32,66.91Z"
                  transform="translate(-57 -44.32)" fill="#00a1ff" opacity="0.2"/>
            <path d="M318.58,200.68c-.43,1.9-3.06,1-2.71-1,.09-.51.2-1,.31-1.48,1.34-5.78.85-12.05.18-18.17a9.2,9.2,0,0,0-1.25-4.33A32.2,32.2,0,0,1,318.45,187a79.67,79.67,0,0,1,.35,11.65A10.5,10.5,0,0,1,318.58,200.68Z"
                  transform="translate(-57 -44.32)" fill="#00a1ff" opacity="0.2"/>
            <path d="M234.32,188.11c-1.49,2.53,2.18,2.35,3.79-.18.42-.66.81-1.32,1.18-2,4.54-7.73,11.46-15.38,18.43-22.77a25.49,25.49,0,0,1,5.71-4.93,90.94,90.94,0,0,0-15,12.8c-4.47,4.68-8.42,9.55-12.28,14.42A23.57,23.57,0,0,0,234.32,188.11Z"
                  transform="translate(-57 -44.32)" fill="#00a1ff" opacity="0.2"/>
            <path d="M282.88,200.68c.43,1.9,3.05,1,2.71-1-.09-.51-.21-1-.32-1.48-1.33-5.78-.85-12.05-.17-18.17a9.3,9.3,0,0,1,1.24-4.33A32.18,32.18,0,0,0,283,187a79.68,79.68,0,0,0-.36,11.65A10.51,10.51,0,0,0,282.88,200.68Z"
                  transform="translate(-57 -44.32)" fill="#00a1ff" opacity="0.2"/>
            <path d="M353,85.91c1.91-.34,2.05,2.45.15,2.87-.5.11-1,.2-1.48.28-5.85,1-11.45,3.86-16.84,6.84a9.28,9.28,0,0,0-3.51,2.82,32.19,32.19,0,0,1,9.11-7.42,80.19,80.19,0,0,1,10.61-4.82A10,10,0,0,1,353,85.91Z"
                  transform="translate(-57 -44.32)" fill="#00a1ff" opacity="0.2"/>
            <path d="M335.18,48.61c1.65-1,2.82,1.51,1.22,2.61-.43.29-.86.56-1.28.81-5.05,3.11-9.17,7.86-13.05,12.64a9.3,9.3,0,0,0-2.21,3.93,32.32,32.32,0,0,1,5.68-10.29,79.18,79.18,0,0,1,8-8.43A10.89,10.89,0,0,1,335.18,48.61Z"
                  transform="translate(-57 -44.32)" fill="#00a1ff" opacity="0.2"/>
            <path d="M259.93,54.74a.9.9,0,0,0,.41.13c.27,0,.45-.27.56-.51.59-1.29.25-3,1.17-4A14.08,14.08,0,0,1,264.28,54L267.76,53a5.14,5.14,0,0,1-.66,4,5.2,5.2,0,0,1,1.64,1.12,1.79,1.79,0,0,1,.43,1.84,8.83,8.83,0,0,1-2.46.24,16.36,16.36,0,0,1-.26,4.58.83.83,0,0,1-.3.58c-.25.16-.59,0-.85-.14a8,8,0,0,1-2.86-3l-1.3,3.09a1.4,1.4,0,0,1-.57.78.93.93,0,0,1-1.09-.38,2.61,2.61,0,0,1-.38-1.17l-.49-2.94a.7.7,0,0,0-.16-.42.75.75,0,0,0-.51-.15q-1.85,0-3.69,0c-.21-.66.44-1.26,1.07-1.54s1.37-.48,1.69-1.09c.64-1.25-1-3-.31-4.05C257.52,53,258.86,54.21,259.93,54.74Z"
                  transform="translate(-57 -44.32)" fill="#00a1ff"/>
            <path d="M346.89,54.74a.86.86,0,0,1-.41.13c-.26,0-.44-.27-.55-.51-.6-1.29-.26-3-1.17-4A14.08,14.08,0,0,0,342.55,54L339.06,53a5.18,5.18,0,0,0,.66,4,5.31,5.31,0,0,0-1.64,1.12,1.81,1.81,0,0,0-.42,1.84,8.83,8.83,0,0,0,2.46.24,16,16,0,0,0,.26,4.58.83.83,0,0,0,.3.58c.25.16.59,0,.85-.14a8.19,8.19,0,0,0,2.86-3l1.3,3.09a1.31,1.31,0,0,0,.57.78.93.93,0,0,0,1.09-.38,2.74,2.74,0,0,0,.38-1.17l.49-2.94a.7.7,0,0,1,.16-.42.75.75,0,0,1,.51-.15q1.85,0,3.69,0c.21-.66-.44-1.26-1.07-1.54s-1.38-.48-1.69-1.09c-.64-1.25,1-3,.31-4.05C349.31,53,348,54.21,346.89,54.74Z"
                  transform="translate(-57 -44.32)" fill="#00a1ff"/>
            <path d="M357.4,198.15a.88.88,0,0,1-.41.12c-.27,0-.45-.27-.56-.51-.59-1.28-.25-2.95-1.16-4a13.85,13.85,0,0,0-2.22,3.71l-3.48-1.07a5.15,5.15,0,0,0,.66,4,5.17,5.17,0,0,0-1.64,1.11,1.82,1.82,0,0,0-.43,1.84,8.83,8.83,0,0,0,2.46.25,16.28,16.28,0,0,0,.26,4.57.91.91,0,0,0,.3.59c.26.16.59,0,.85-.15a7.93,7.93,0,0,0,2.86-3l1.3,3.09a1.38,1.38,0,0,0,.58.77.91.91,0,0,0,1.08-.37,2.8,2.8,0,0,0,.39-1.17l.48-2.95a.7.7,0,0,1,.16-.42.76.76,0,0,1,.52-.14c1.22,0,2.45-.05,3.68,0,.21-.65-.44-1.26-1.07-1.54s-1.37-.48-1.69-1.09c-.64-1.24,1-3,.31-4C359.81,196.37,358.47,197.62,357.4,198.15Z"
                  transform="translate(-57 -44.32)" fill="#00a1ff" opacity="0.2"/>
            <path d="M386.91,102a.78.78,0,0,1-.41.12c-.27,0-.45-.26-.56-.5-.59-1.29-.25-3-1.17-4a14.13,14.13,0,0,0-2.21,3.72l-3.48-1.08a5.15,5.15,0,0,0,.66,4,5.34,5.34,0,0,0-1.64,1.11,1.81,1.81,0,0,0-.43,1.85,8.83,8.83,0,0,0,2.46.24,16.38,16.38,0,0,0,.26,4.58.83.83,0,0,0,.3.58c.25.16.59,0,.85-.14a8,8,0,0,0,2.86-3l1.3,3.09a1.4,1.4,0,0,0,.57.78.94.94,0,0,0,1.09-.38,2.61,2.61,0,0,0,.38-1.17l.49-3a.7.7,0,0,1,.16-.41.75.75,0,0,1,.51-.15c1.23,0,2.46,0,3.69,0,.21-.65-.44-1.26-1.07-1.53s-1.37-.48-1.69-1.09c-.64-1.25,1-3,.31-4C389.32,100.25,388,101.49,386.91,102Z"
                  transform="translate(-57 -44.32)" fill="#00a1ff"/>
            <path d="M268.93,212.53a1.18,1.18,0,0,1-.57.17c-.37,0-.62-.37-.78-.7-.82-1.8-.35-4.13-1.62-5.64a19.25,19.25,0,0,0-3.08,5.18L258,210a7.24,7.24,0,0,0,.92,5.56,7.39,7.39,0,0,0-2.29,1.56,2.53,2.53,0,0,0-.59,2.56,12.39,12.39,0,0,0,3.43.35,22.7,22.7,0,0,0,.36,6.37,1.15,1.15,0,0,0,.42.81c.35.23.82,0,1.18-.19a11.28,11.28,0,0,0,4-4.24l1.81,4.31a2,2,0,0,0,.8,1.08,1.28,1.28,0,0,0,1.51-.52,3.75,3.75,0,0,0,.54-1.64l.67-4.1a1.07,1.07,0,0,1,.23-.58,1,1,0,0,1,.72-.21c1.71,0,3.42-.06,5.13-.05.3-.91-.61-1.75-1.49-2.14s-1.91-.67-2.35-1.52c-.9-1.73,1.41-4.14.43-5.64C272.3,210.06,270.43,211.79,268.93,212.53Z"
                  transform="translate(-57 -44.32)" fill="#00a1ff"/>
            <path d="M219.85,104.89a1.19,1.19,0,0,1-.58.17c-.36,0-.62-.37-.77-.7-.83-1.8-.35-4.13-1.62-5.64a19.28,19.28,0,0,0-3.09,5.18l-4.85-1.51a7.19,7.19,0,0,0,.91,5.56,7.34,7.34,0,0,0-2.28,1.56,2.53,2.53,0,0,0-.6,2.56,12.39,12.39,0,0,0,3.43.35,22.34,22.34,0,0,0,.37,6.37.9.9,0,0,0,1.6.62,11.28,11.28,0,0,0,4-4.24l1.8,4.31a1.9,1.9,0,0,0,.81,1.08,1.29,1.29,0,0,0,1.51-.52,3.69,3.69,0,0,0,.53-1.64l.68-4.1a1,1,0,0,1,.22-.58,1,1,0,0,1,.72-.2c1.71,0,3.42-.07,5.14-.06.29-.91-.62-1.75-1.49-2.14s-1.92-.67-2.36-1.52c-.89-1.73,1.42-4.14.44-5.64C223.21,102.42,221.34,104.15,219.85,104.89Z"
                  transform="translate(-57 -44.32)" fill="#00a1ff"/>
            <path d="M368.79,171.55a.58.58,0,0,1-.3.09c-.2,0-.33-.2-.42-.37-.44-1-.18-2.19-.86-3a10.49,10.49,0,0,0-1.64,2.75l-2.58-.8a3.9,3.9,0,0,0,.49,3,3.75,3.75,0,0,0-1.21.82,1.34,1.34,0,0,0-.32,1.36,6.59,6.59,0,0,0,1.82.19,12,12,0,0,0,.2,3.38.6.6,0,0,0,.22.43.62.62,0,0,0,.63-.1,6.11,6.11,0,0,0,2.12-2.25l1,2.29a1,1,0,0,0,.42.57.69.69,0,0,0,.81-.27,2,2,0,0,0,.28-.87l.36-2.18a.56.56,0,0,1,.12-.31.49.49,0,0,1,.38-.11l2.73,0c.15-.48-.33-.93-.8-1.13s-1-.36-1.25-.81c-.47-.92.76-2.2.24-3S369.58,171.15,368.79,171.55Z"
                  transform="translate(-57 -44.32)" fill="#00a1ff" opacity="0.2"/>
            <path d="M302.11,210.05a.8.8,0,0,1-.3.09.56.56,0,0,1-.41-.38c-.44-.95-.19-2.19-.87-3a10.33,10.33,0,0,0-1.64,2.75l-2.57-.8a3.83,3.83,0,0,0,.48,2.95,4.2,4.2,0,0,0-1.21.83,1.34,1.34,0,0,0-.32,1.36,6.22,6.22,0,0,0,1.82.18,12,12,0,0,0,.2,3.39.62.62,0,0,0,.22.43c.19.12.44,0,.63-.1a6.1,6.1,0,0,0,2.12-2.25l1,2.29a1,1,0,0,0,.42.57.7.7,0,0,0,.81-.28,2,2,0,0,0,.28-.87l.36-2.18a.53.53,0,0,1,.12-.3.52.52,0,0,1,.38-.11q1.37,0,2.73,0c.15-.48-.33-.93-.79-1.14s-1-.35-1.25-.81c-.48-.92.75-2.2.23-3S302.91,209.65,302.11,210.05Z"
                  transform="translate(-57 -44.32)" fill="#00a1ff" opacity="0.2"/>
            <path d="M237.58,75.31a.75.75,0,0,1-.3.09.56.56,0,0,1-.41-.38c-.44-1-.19-2.19-.86-3a9.83,9.83,0,0,0-1.64,2.75l-2.58-.8a3.79,3.79,0,0,0,.49,3,4.12,4.12,0,0,0-1.22.83,1.33,1.33,0,0,0-.31,1.36,6.16,6.16,0,0,0,1.82.18,12,12,0,0,0,.19,3.39.62.62,0,0,0,.22.43c.19.12.44,0,.63-.1a6,6,0,0,0,2.12-2.25l1,2.29a1,1,0,0,0,.43.57.69.69,0,0,0,.8-.28,2,2,0,0,0,.28-.87l.36-2.18a.51.51,0,0,1,.12-.3.52.52,0,0,1,.38-.11q1.37,0,2.73,0c.16-.48-.33-.93-.79-1.14s-1-.35-1.25-.81c-.48-.92.75-2.2.23-3S238.38,74.91,237.58,75.31Z"
                  transform="translate(-57 -44.32)" fill="#00a1ff" opacity="0.5"/>
            <animate attributeName="opacity"
                     values="0;0;1;1;0"
                     keyTimes="0 ; 0.15 ; 0.2;0.95; 1"
                     dur="5s"
                     repeatCount="indefinite"/>
        </g>
        <animate attributeName="opacity"
                 values="0;0;1;1;0;0"
                 keyTimes="0 ; 0.5 ; 0.51 ; 0.97 ;0.98; 1"
                 dur="30s"
                 repeatCount="indefinite"/>
    </g>
</svg>